<svg version="1.1" xmlns="http://www.w3.org/2000/svg" viewBox="0 0 351.88161121472194 318.65494086874315" width="351.88161121472194" height="318.65494086874315" filter="invert(93%) hue-rotate(180deg)">
  <!-- svg-source:excalidraw -->
  
  <defs>
    <style class="style-fonts">
      @font-face {
        font-family: "Virgil";
        src: url("https://excalidraw.com/Virgil.woff2");
      }
      @font-face {
        font-family: "Cascadia";
        src: url("https://excalidraw.com/Cascadia.woff2");
      }
    </style>
  </defs>
  <g stroke-linecap="round" transform="translate(10.180856706950635 15.491153215825534) rotate(0 15.930150183760531 15.821399569873648)"><path d="M0 0 L31.86 0 L31.86 31.64 L0 31.64" stroke="none" stroke-width="0" fill="#ff00"/><path d="M0 0 C9.4 0, 18.79 0, 31.86 0 M0 0 C12.38 0, 24.75 0, 31.86 0 M31.86 0 C31.86 8.72, 31.86 17.43, 31.86 31.64 M31.86 0 C31.86 9.15, 31.86 18.3, 31.86 31.64 M31.86 31.64 C23.21 31.64, 14.57 31.64, 0 31.64 M31.86 31.64 C23.18 31.64, 14.5 31.64, 0 31.64 M0 31.64 C0 20.37, 0 9.09, 0 0 M0 31.64 C0 23.97, 0 16.3, 0 0" stroke="#000" stroke-width="4" fill="none"/></g><g stroke-linecap="round" transform="translate(10 58.63092207563841) rotate(0 15.930150183760531 15.821399569873648)"><path d="M0 0 L31.86 0 L31.86 31.64 L0 31.64" stroke="none" stroke-width="0" fill="#ff00"/><path d="M0 0 C9.99 0, 19.97 0, 31.86 0 M0 0 C9.32 0, 18.65 0, 31.86 0 M31.86 0 C31.86 9.9, 31.86 19.8, 31.86 31.64 M31.86 0 C31.86 7.41, 31.86 14.81, 31.86 31.64 M31.86 31.64 C22.24 31.64, 12.63 31.64, 0 31.64 M31.86 31.64 C20.29 31.64, 8.73 31.64, 0 31.64 M0 31.64 C0 22.93, 0 14.22, 0 0 M0 31.64 C0 22.54, 0 13.44, 0 0" stroke="#000" stroke-width="4" fill="none"/></g><g stroke-linecap="round" transform="translate(53.91298706880815 58.357338331037454) rotate(0 15.930150183760531 15.821399569873648)"><path d="M0 0 L31.86 0 L31.86 31.64 L0 31.64" stroke="none" stroke-width="0" fill="#ff00"/><path d="M0 0 C7.75 0, 15.5 0, 31.86 0 M0 0 C9.85 0, 19.69 0, 31.86 0 M31.86 0 C31.86 8.97, 31.86 17.94, 31.86 31.64 M31.86 0 C31.86 9.87, 31.86 19.74, 31.86 31.64 M31.86 31.64 C25.2 31.64, 18.53 31.64, 0 31.64 M31.86 31.64 C21.02 31.64, 10.17 31.64, 0 31.64 M0 31.64 C0 19.44, 0 7.23, 0 0 M0 31.64 C0 24.27, 0 16.89, 0 0" stroke="#000" stroke-width="4" fill="none"/></g><g stroke-linecap="round"><g transform="translate(85.66139125462405 21.489737602604464) rotate(0 -15.809018937563451 10.01516531092102)"><path d="M0 0 C-0.04 -1.75, -0.09 -3.49, -0.14 -5.4 M0 0 C-0.04 -1.59, -0.08 -3.18, -0.14 -5.4 M-0.14 -5.4 C-11.42 -5.54, -22.71 -5.68, -31.62 -5.79 M-0.14 -5.4 C-11.72 -5.54, -23.3 -5.68, -31.62 -5.79 M-31.62 -5.79 C-31.57 2.46, -31.53 10.71, -31.44 25.64 M-31.62 -5.79 C-31.55 6.07, -31.48 17.93, -31.44 25.64 M-31.44 25.64 C-23.95 25.68, -16.47 25.72, -0.69 25.82 M-31.44 25.64 C-21.7 25.69, -11.96 25.75, -0.69 25.82 M-0.69 25.82 C-0.65 23.76, -0.61 21.7, -0.5 16.52 M-0.69 25.82 C-0.62 22.56, -0.56 19.29, -0.5 16.52" stroke="#000" stroke-width="4" fill="none"/></g></g><mask/><g stroke-linecap="round"><g transform="translate(21.242877741859218 27.269489944453653) rotate(0 4.747710360323438 -0.02109143549938608)"><path d="M0 0 C2.13 -0.01, 4.27 -0.02, 9.5 -0.04 M0 0 C3.41 -0.02, 6.82 -0.03, 9.5 -0.04" stroke="#3d71b7" stroke-width="4" fill="none"/></g></g><mask/><g stroke-linecap="round"><g transform="translate(186.93725275830187 265.03143005544683) rotate(0 -18.05060904013724 0.8510071601587512)"><path d="M0 0 C3.98 -4.68, 7.97 -9.36, 10.38 -12.19 M0 0 C3.42 -4.01, 6.83 -8.03, 10.38 -12.19 M10.38 -12.19 C2.1 -14.27, -6.18 -16.36, -17.69 -19.25 M10.38 -12.19 C3.87 -13.83, -2.64 -15.47, -17.69 -19.25 M-17.69 -19.25 C-16.21 -27.05, -14.74 -34.85, -13.4 -41.92 M-17.69 -19.25 C-16.64 -24.78, -15.6 -30.31, -13.4 -41.92 M-13.4 -41.92 C-22.68 -31.97, -31.97 -22.02, -46.48 -6.47 M-13.4 -41.92 C-20.11 -34.72, -26.83 -27.52, -46.48 -6.47 M-46.48 -6.47 C-39.41 -4.59, -32.35 -2.7, -24.42 -0.59 M-46.48 -6.47 C-39.53 -4.62, -32.59 -2.77, -24.42 -0.59 M-24.42 -0.59 C-27.39 10.52, -30.36 21.62, -36.25 43.62 M-24.42 -0.59 C-27.89 12.39, -31.36 25.37, -36.25 43.62 M-36.25 43.62 C-29.77 35.94, -23.28 28.25, -9.88 12.37 M-36.25 43.62 C-30.9 37.28, -25.55 30.94, -9.88 12.37" stroke="#000" stroke-width="4" fill="none"/></g></g><mask/><g stroke-linecap="round"><g transform="translate(176.532944413251 258.72770206575564) rotate(0 -2.1112708409760086 3.694812188754181)"><path d="M0 0 C-1.68 2.94, -3.36 5.89, -4.22 7.39 M0 0 C-0.92 1.62, -1.85 3.23, -4.22 7.39" stroke="#3d71b7" stroke-width="4" fill="none"/></g></g><mask/><g stroke-linecap="round"><g transform="translate(212.97523660924247 30.77919756544128) rotate(0 -43.08859289107783 22.103239650164284)"><path d="M0 0 C0.04 -7.66, 0.08 -15.33, 0.11 -20.5 M0 0 C0.04 -7.08, 0.08 -14.16, 0.11 -20.5 M0.11 -20.5 C-21.05 -20.57, -42.21 -20.64, -85.59 -20.78 M0.11 -20.5 C-19.56 -20.56, -39.24 -20.63, -85.59 -20.78 M-85.59 -20.78 C-85.75 -1.25, -85.91 18.28, -86.29 64.58 M-85.59 -20.78 C-85.79 3.7, -85.99 28.18, -86.29 64.58 M-86.29 64.58 C-55.61 64.72, -24.93 64.87, -0.49 64.99 M-86.29 64.58 C-58 64.71, -29.7 64.85, -0.49 64.99 M-0.49 64.99 C-0.35 47.99, -0.21 31, -0.11 18.74 M-0.49 64.99 C-0.35 48.01, -0.21 31.03, -0.11 18.74" stroke="#000" stroke-width="4" fill="none"/></g></g><mask/><g stroke-linecap="round"><g transform="translate(138.72511645460764 36.16988416809761) rotate(0 7.992413974574025 0.07603301186287581)"><path d="M0 0 C5.19 0.05, 10.38 0.1, 15.98 0.15 M0 0 C5.46 0.05, 10.92 0.1, 15.98 0.15" stroke="#3d71b7" stroke-width="4" fill="none"/></g></g><mask/><g stroke-linecap="round"><g transform="translate(146.52834267242173 28.8290765834617) rotate(0 0.07444510503156998 24.204489034693268)"><path d="M0 0 C0.04 12.62, 0.08 25.24, 0.15 48.41 M0 0 C0.06 18.93, 0.12 37.85, 0.15 48.41" stroke="#3d71b7" stroke-width="4" fill="none"/></g></g><mask/><g stroke-linecap="round"><g transform="translate(184.8745182259463 35.74974922540207) rotate(0 7.992413974574024 0.07603301186287581)"><path d="M0 0 C5.38 0.05, 10.75 0.1, 15.98 0.15 M0 0 C3.34 0.03, 6.69 0.06, 15.98 0.15" stroke="#3d71b7" stroke-width="4" fill="none"/></g></g><mask/><g stroke-linecap="round"><g transform="translate(192.67774444376005 28.408941640764795) rotate(0 0.07444510503156998 24.204489034693268)"><path d="M0 0 C0.05 15.88, 0.1 31.75, 0.15 48.41 M0 0 C0.03 10.15, 0.06 20.31, 0.15 48.41" stroke="#3d71b7" stroke-width="4" fill="none"/></g></g><mask/><g stroke-linecap="round"><g transform="translate(169.78661062876574 28.428883734176623) rotate(0 -0.0156774293505042 11.27062998442662)"><path d="M0 0 C-0.01 5.66, -0.02 11.32, -0.03 22.54 M0 0 C-0.01 6.62, -0.02 13.23, -0.03 22.54" stroke="#3d71b7" stroke-width="4" fill="none"/></g></g><mask/><g stroke-linecap="round"><g transform="translate(161.5696414233725 62.415665241761076) rotate(0 8.074591933825447 0.11867965247553514)"><path d="M0 0 C4.12 0.06, 8.23 0.12, 16.15 0.24 M0 0 C4.62 0.07, 9.23 0.14, 16.15 0.24" stroke="#3d71b7" stroke-width="4" fill="none"/></g></g><mask/><g stroke-linecap="round"><g transform="translate(169.44077964382592 62.60517562086136) rotate(0 0.004718351727349468 7.136824568988118)"><path d="M0 0 C0 5.67, 0.01 11.33, 0.01 14.27 M0 0 C0 2.87, 0 5.74, 0.01 14.27" stroke="#3d71b7" stroke-width="4" fill="none"/></g></g><mask/><g stroke-linecap="round"><g transform="translate(341.2220875082544 32.018981595429636) rotate(0 -43.500690654083584 16.18178478046046)"><path d="M0 0 C-0.01 -2.89, -0.01 -5.78, -0.01 -7.3 M0 0 C-0.01 -2.85, -0.01 -5.7, -0.01 -7.3 M-0.01 -7.3 C-22.89 -7.33, -45.78 -7.37, -86.84 -7.43 M-0.01 -7.3 C-29.18 -7.34, -58.35 -7.39, -86.84 -7.43 M-86.84 -7.43 C-86.88 3.59, -86.92 14.61, -87 39.58 M-86.84 -7.43 C-86.89 5.23, -86.93 17.9, -87 39.58 M-87 39.58 C-66.95 39.63, -46.9 39.68, -0.31 39.79 M-87 39.58 C-67.69 39.62, -48.37 39.67, -0.31 39.79 M-0.31 39.79 C-0.34 31.92, -0.37 24.05, -0.4 16.1 M-0.31 39.79 C-0.34 33.74, -0.36 27.68, -0.4 16.1" stroke="#000" stroke-width="4" fill="none"/></g></g><mask/><g stroke-linecap="round"><g transform="translate(271.85830226037115 36.819086719997244) rotate(0 26.302512195819503 0.015222994873482776)"><path d="M0 0 C19.11 0.01, 38.22 0.02, 52.61 0.03 M0 0 C20.88 0.01, 41.76 0.02, 52.61 0.03" stroke="#3d71b7" stroke-width="4" fill="none"/></g></g><mask/><g stroke-linecap="round"><g transform="translate(253.89167622160724 88.77179114381522) rotate(0 43.99496749655735 0.20276067278895482)"><path d="M0 0 C30.68 0.14, 61.37 0.28, 87.99 0.41 M0 0 C27.85 0.13, 55.7 0.26, 87.99 0.41" stroke="#000" stroke-width="4" fill="none"/></g></g><mask/><g stroke-linecap="round"><g transform="translate(271.3559016081331 53.43062574189241) rotate(0 -0.034899970389851376 8.793297422658213)"><path d="M0 0 C-0.03 6.83, -0.05 13.65, -0.07 17.59 M0 0 C-0.02 5.29, -0.04 10.59, -0.07 17.59" stroke="#000" stroke-width="4" fill="none"/></g></g><mask/><g stroke-linecap="round"><g transform="translate(288.8255428678359 59.22747632096923) rotate(0 0.001756499408521961 5.786238395150534)"><path d="M0 0 C0 2.58, 0 5.17, 0 11.57 M0 0 C0 3.97, 0 7.93, 0 11.57" stroke="#000" stroke-width="4" fill="none"/></g></g><mask/><g stroke-linecap="round"><g transform="translate(306.0056335643343 59.23534920224654) rotate(0 0.09925267193246157 6.0193509595031855)"><path d="M0 0 C0.08 4.62, 0.15 9.25, 0.2 12.04 M0 0 C0.05 3.31, 0.11 6.61, 0.2 12.04" stroke="#000" stroke-width="4" fill="none"/></g></g><mask/><g stroke-linecap="round"><g transform="translate(323.5312653337529 53.64327195152953) rotate(0 0.1344558475771862 8.691624336362665)"><path d="M0 0 C0.1 6.31, 0.2 12.61, 0.27 17.38 M0 0 C0.06 3.64, 0.11 7.29, 0.27 17.38" stroke="#000" stroke-width="4" fill="none"/></g></g><mask/><g stroke-linecap="round"><g transform="translate(168.0116437181646 108.60899971560559) rotate(0 0 46)"><path d="M1.11 -0.61 C0.92 14.84, -0.74 76.26, -0.99 91.72 M0.23 1.69 C0.4 17.41, 1.47 77.8, 1.21 93.11" stroke="#000000" stroke-width="1" fill="none"/></g><g transform="translate(168.0116437181646 108.60899971560559) rotate(0 0 46)"><path d="M-10.14 63.3 C-6.61 72.98, -2.67 81.72, 0.26 94.15 M-8.47 65.22 C-7.31 71.33, -2.78 78.8, 0.6 92.67" stroke="#000000" stroke-width="1" fill="none"/></g><g transform="translate(168.0116437181646 108.60899971560559) rotate(0 0 46)"><path d="M10.38 63.24 C7.51 73.13, 5.06 81.89, 0.26 94.15 M12.06 65.16 C8.01 71.1, 7.33 78.59, 0.6 92.67" stroke="#000000" stroke-width="1" fill="none"/></g></g><mask/><g stroke-linecap="round"><g transform="translate(297.0116437181646 110.60899971560559) rotate(0 -40.5 46.5)"><path d="M0.4 0.18 C-13.12 15.71, -66.6 78.48, -80.04 93.77 M-0.86 -0.77 C-14.54 14.37, -67.2 76.48, -80.48 92.05" stroke="#000000" stroke-width="1" fill="none"/></g><g transform="translate(297.0116437181646 110.60899971560559) rotate(0 -40.5 46.5)"><path d="M-69.73 65.53 C-72.68 76.23, -79.83 86.61, -79.47 92.71 M-70.21 63.97 C-73.98 73.76, -78.06 83.25, -80.58 92.03" stroke="#000000" stroke-width="1" fill="none"/></g><g transform="translate(297.0116437181646 110.60899971560559) rotate(0 -40.5 46.5)"><path d="M-54.1 78.83 C-63.2 84.4, -76.45 89.6, -79.47 92.71 M-54.59 77.27 C-63.62 82.63, -73.03 87.6, -80.58 92.03" stroke="#000000" stroke-width="1" fill="none"/></g></g><mask/><g stroke-linecap="round"><g transform="translate(50.011643718164606 112.60899971560559) rotate(0 42.5 43.5)"><path d="M-0.39 -0.42 C13.94 13.82, 71.05 71.09, 85.24 85.82 M1.61 -1.68 C15.86 12.62, 70.71 72.1, 84.41 86.74" stroke="#000000" stroke-width="1" fill="none"/></g><g transform="translate(50.011643718164606 112.60899971560559) rotate(0 42.5 43.5)"><path d="M57.01 73.47 C62.22 76.01, 72.27 78.51, 84.53 88.47 M58.29 73.79 C62.82 76.06, 68.76 79.96, 83.99 86.51" stroke="#000000" stroke-width="1" fill="none"/></g><g transform="translate(50.011643718164606 112.60899971560559) rotate(0 42.5 43.5)"><path d="M72.04 59.5 C73.68 65.36, 80.1 71.22, 84.53 88.47 M73.32 59.82 C74.79 64.96, 77.56 71.79, 83.99 86.51" stroke="#000000" stroke-width="1" fill="none"/></g></g><mask/></svg>