<svg version="1.1" xmlns="http://www.w3.org/2000/svg" viewBox="0 0 106.84795701764251 106.7025687605402" width="106.84795701764251" height="106.7025687605402" filter="invert(93%) hue-rotate(180deg)">
  <!-- svg-source:excalidraw -->
  
  <defs>
    <style class="style-fonts">
      @font-face {
        font-family: "Virgil";
        src: url("https://excalidraw.com/Virgil.woff2");
      }
      @font-face {
        font-family: "Cascadia";
        src: url("https://excalidraw.com/Cascadia.woff2");
      }
    </style>
  </defs>
  <g stroke-linecap="round"><g transform="translate(96.76334743317906 40.68283073895518) rotate(0 -43.33936892435781 12.668453641314919)"><path d="M0 0 C-0.01 -5.17, -0.03 -10.35, -0.04 -14.99 M0 0 C-0.01 -4.91, -0.03 -9.81, -0.04 -14.99 M-0.04 -14.99 C-14.03 -19.98, -28.02 -24.97, -44.03 -30.68 M-0.04 -14.99 C-10.94 -18.88, -21.85 -22.77, -44.03 -30.68 M-44.03 -30.68 C-55.12 -26.63, -66.21 -22.57, -86.49 -15.15 M-44.03 -30.68 C-60.82 -24.54, -77.61 -18.4, -86.49 -15.15 M-86.49 -15.15 C-86.55 -3.72, -86.61 7.71, -86.76 36.61 M-86.49 -15.15 C-86.56 -1.13, -86.64 12.88, -86.76 36.61 M-86.76 36.61 C-74.71 42.03, -62.66 47.45, -43.59 56.02 M-86.76 36.61 C-73.62 42.52, -60.47 48.43, -43.59 56.02 M-43.59 56.02 C-27.32 48.85, -11.06 41.69, 0.08 36.77 M-43.59 56.02 C-28.82 49.51, -14.04 43, 0.08 36.77 M0.08 36.77 C0.06 29.81, 0.04 22.84, 0.01 14.34 M0.08 36.77 C0.06 29.9, 0.04 23.03, 0.01 14.34" stroke="#000" stroke-width="4" fill="none"/></g></g><mask/><g stroke-linecap="round"><g transform="translate(26.17479482948181 33.28001073258529) rotate(0 13.689775620251408 20.425786362288367)"><path d="M0 0 C6.37 2.3, 12.73 4.6, 27.38 9.89 M0 0 C9.58 3.46, 19.17 6.92, 27.38 9.89 M27.38 9.89 C27.34 17.06, 27.29 24.23, 27.19 40.85 M27.38 9.89 C27.34 16.28, 27.3 22.66, 27.19 40.85" stroke="#3d71b7" stroke-width="4" fill="none"/></g></g><mask/></svg>