<svg version="1.1" xmlns="http://www.w3.org/2000/svg" viewBox="0 0 432.2749445901484 432.70098231575497" width="432.2749445901484" height="432.70098231575497" filter="invert(93%) hue-rotate(180deg)">
  <!-- svg-source:excalidraw -->
  
  <defs>
    <style class="style-fonts">
      @font-face {
        font-family: "Virgil";
        src: url("https://excalidraw.com/Virgil.woff2");
      }
      @font-face {
        font-family: "Cascadia";
        src: url("https://excalidraw.com/Cascadia.woff2");
      }
    </style>
  </defs>
  <g stroke-linecap="round"><g transform="translate(311.0925223204188 38.43072271261971) rotate(0 -95.22076519193733 41.7823458655559)"><path d="M0 0 C-0.08 -10.11, -0.15 -20.21, -0.21 -28.41 M0 0 C-0.05 -7.11, -0.11 -14.22, -0.21 -28.41 M-0.21 -28.41 C-66.69 -28.42, -133.16 -28.42, -192.07 -28.43 M-0.21 -28.41 C-40.75 -28.41, -81.28 -28.42, -192.07 -28.43 M-192.07 -28.43 C-192 2.29, -191.93 33, -191.76 111.24 M-192.07 -28.43 C-191.97 14.65, -191.87 57.74, -191.76 111.24 M-191.76 111.24 C-115.62 111.54, -39.48 111.84, 1.56 112 M-191.76 111.24 C-150.23 111.4, -108.71 111.56, 1.56 112 M1.56 112 C1.58 103.13, 1.6 94.26, 1.62 81.9 M1.56 112 C1.58 102.14, 1.6 92.28, 1.62 81.9" stroke="#000" stroke-width="4" fill="none"/></g></g><mask/><g stroke-linecap="round" transform="translate(282.9952798651828 281.5637562131055) rotate(0 69.63983236248278 70.56861305132475)"><path d="M0 0 L139.28 0 L139.28 141.14 L0 141.14" stroke="none" stroke-width="0" fill="#ff00"/><path d="M0 0 C51.84 0, 103.69 0, 139.28 0 M0 0 C41.76 0, 83.53 0, 139.28 0 M139.28 0 C139.28 35.8, 139.28 71.61, 139.28 141.14 M139.28 0 C139.28 33.33, 139.28 66.67, 139.28 141.14 M139.28 141.14 C94.48 141.14, 49.68 141.14, 0 141.14 M139.28 141.14 C101.09 141.14, 62.89 141.14, 0 141.14 M0 141.14 C0 87.34, 0 33.54, 0 0 M0 141.14 C0 95.23, 0 49.33, 0 0" stroke="#000" stroke-width="4" fill="none"/></g><g stroke-linecap="round" transform="translate(10 281.31030388312246) rotate(0 69.63983236248278 70.56861305132475)"><path d="M0 0 L139.28 0 L139.28 141.14 L0 141.14" stroke="none" stroke-width="0" fill="#ff00"/><path d="M0 0 C50.13 0, 100.26 0, 139.28 0 M0 0 C53.84 0, 107.67 0, 139.28 0 M139.28 0 C139.28 35.31, 139.28 70.62, 139.28 141.14 M139.28 0 C139.28 55.12, 139.28 110.25, 139.28 141.14 M139.28 141.14 C101.6 141.14, 63.92 141.14, 0 141.14 M139.28 141.14 C87.16 141.14, 35.05 141.14, 0 141.14 M0 141.14 C0 95.01, 0 48.89, 0 0 M0 141.14 C0 95.87, 0 50.61, 0 0" stroke="#000" stroke-width="4" fill="none"/></g><g stroke-linecap="round"><g transform="translate(216.09556639849075 150.73623912417963) rotate(0 -0.013435223805283947 24.85035919701787)"><path d="M0 0 C-0.01 13.33, -0.01 26.65, -0.03 49.7 M0 0 C-0.01 19.36, -0.02 38.71, -0.03 49.7" stroke="#000" stroke-width="4" fill="none"/></g></g><mask/><g stroke-linecap="round"><g transform="translate(77.9551286409536 279.07818980209385) rotate(0 137.60624592467246 -38.82147507440564)"><path d="M0 0 C0.07 -17.66, 0.15 -35.33, 0.32 -77.61 M0 0 C0.09 -20.9, 0.17 -41.79, 0.32 -77.61 M0.32 -77.61 C80.59 -77.62, 160.86 -77.63, 275.21 -77.64 M0.32 -77.61 C102.09 -77.62, 203.86 -77.63, 275.21 -77.64 M275.21 -77.64 C275.18 -47.75, 275.14 -17.86, 275.12 -0.09 M275.21 -77.64 C275.19 -59.19, 275.17 -40.73, 275.12 -0.09" stroke="#000" stroke-width="4" fill="none"/></g></g><mask/><g stroke-linecap="round"><g transform="translate(171.96155629664366 65.40155667078224) rotate(0 29.541656810066662 0.013043502019399966)"><path d="M0 0 C16.16 0.01, 32.31 0.01, 59.08 0.03 M0 0 C12.14 0.01, 24.27 0.01, 59.08 0.03" stroke="#3d71b7" stroke-width="4" fill="none"/></g></g><mask/></svg>