<svg version="1.1" xmlns="http://www.w3.org/2000/svg" viewBox="0 0 156.16964371799753 155.73420922384327" width="156.16964371799753" height="155.73420922384327">
  <!-- svg-source:excalidraw -->
  
  <defs>
    <style class="style-fonts">
      @font-face {
        font-family: "Virgil";
        src: url("https://excalidraw.com/Virgil.woff2");
      }
      @font-face {
        font-family: "Cascadia";
        src: url("https://excalidraw.com/Cascadia.woff2");
      }
    </style>
  </defs>
  <g stroke-linecap="round"><g transform="translate(77.53132967874468 10.123230041655049) rotate(0 -17.019092677558767 50.34746141146445)" fill-rule="evenodd"><path d="M-60.24 41.71 C-60.24 41.71, -60.24 41.71, -60.24 41.71 M-60.24 41.71 C-60.24 41.71, -60.24 41.71, -60.24 41.71 M-67.07 53.51 C-58.77 46.98, -56.29 39.77, -49.53 35.06 M-65.59 54.43 C-60.41 47.5, -55.14 42.13, -49.56 36.66 M-30.97 16.34 C-28.63 10.75, -26 7.55, -22.38 2.98 M-31.83 15.11 C-29.55 11.81, -26.65 9.9, -21.55 2.96 M-66.8 60.85 C-59.41 53.32, -49.35 42.37, -42.41 35.88 M-66.18 61.71 C-58.52 51.23, -50.78 43.03, -44.72 34.69 M-31.8 23.01 C-25.99 12.68, -19.2 5.33, -16.5 3.33 M-31.98 20.41 C-26.34 14.98, -23.11 11.09, -13.95 1.23 M-65.46 68.28 C-58.56 58.27, -53.39 52.78, -41.35 36.71 M-67.49 67.67 C-57.72 57.75, -49.31 46.57, -39.08 36.88 M-32.07 29.01 C-27.92 22.03, -21.29 14.92, -9.66 1.74 M-33.1 27.73 C-24.6 19.93, -18.65 11.33, -7.68 -0.14 M-66.07 72.86 C-59.11 64.42, -51.99 55.96, -35.1 35.62 M-66.36 73.28 C-57.66 63.66, -50.18 55.65, -33.43 36.14 M-30.46 30.76 C-23 26.12, -15.76 16.08, -3.68 0.88 M-30 31.94 C-23.28 23.51, -15.27 13.82, -2.97 -0.3 M-64.88 79.98 C-55.28 66.51, -42.57 52.15, -29.58 35.3 M-65.54 79.96 C-52.45 63.37, -38.7 45.32, -29.38 35.15 M-25.01 30.68 C-18.17 22.94, -11.75 15.94, 3.4 2.95 M-26.28 31.31 C-18.36 23.84, -10.49 14.82, 0.86 1.26 M-65.36 85.07 C-52.88 71.4, -41.3 58.32, -22.66 36.95 M-65.66 83.36 C-49.62 65.44, -34.01 48.39, -22.16 36.29 M-20.27 33.26 C-10.97 24.86, -4.59 15.21, 8.24 1.95 M-19.74 31.37 C-14.5 24.71, -6.79 16.75, 6.56 1.03 M-64.24 87.89 C-53.54 75.81, -41.19 64.28, -17.37 34.37 M-63.23 87.6 C-44.97 67.81, -27.5 48.15, -17.83 35.65 M-14.05 31.04 C-9.38 25.05, -1.28 16.54, 10.35 0.68 M-15.05 32.85 C-5.36 20.25, 4.94 10.86, 13.04 0.48 M-63.44 92.52 C-45.98 71.26, -26.06 54.08, -12.73 35.89 M-62.64 91.25 C-50.79 78.69, -38.76 66.39, -12.03 35.05 M-8.09 31.12 C-1.14 22.31, 7.46 15.85, 15.31 2.55 M-8.49 32.17 C0.14 22.82, 7.38 12.05, 16.64 1.76 M-60.12 97.07 C-41.14 74.62, -25.46 55.84, -8.89 34.45 M-60.19 95.13 C-48.92 82.68, -36.43 71, -7.27 36.04 M-5.31 33.15 C3.65 21.88, 15.32 9.22, 22.17 4.74 M-5.2 31.53 C2 22.56, 10.06 15.03, 20.49 3.06 M-56.7 99.99 C-42.17 82.68, -28.89 66.62, -1.98 37.5 M-56.05 98.49 C-43.11 80.74, -28.47 64.33, -1.64 35.86 M3.43 31.37 C10.72 21.91, 18.93 10.97, 24.01 5 M2.13 30.78 C8.43 24.51, 14.18 16.5, 25.16 5.21 M-52.12 99.29 C-44.56 92.31, -40.51 86.49, -36.01 81.61 M-53.6 100.34 C-49.16 95.26, -44.93 90.22, -34.78 80.02 M-24.12 67.27 C-2.27 42.82, 15.58 22.11, 28.08 6.14 M-24.26 66.25 C-4.81 45.15, 14.75 22.41, 28.64 6.3 M-49.91 100.52 C-44.06 94.88, -37.94 89.91, -36.05 86.37 M-47.46 101.37 C-45.88 96.74, -41.97 94, -35.05 86.19 M-18.91 64.01 C-6.66 51.6, 4.76 42.14, 32.38 11.31 M-16.5 65.06 C0.29 45.37, 16.46 26.14, 31.1 8.88 M-41.95 100.34 C-41.65 99.64, -38.12 96.88, -33.9 92.27 M-42.73 101.05 C-40.37 98.79, -39.08 96.32, -34.68 92.18 M-12.98 66.99 C6.1 46.15, 22.73 26.43, 34.36 15.2 M-11.42 65.72 C-0.06 52.14, 10.76 40.42, 33.45 13.25 M-37.62 101.06 C-36.36 99.82, -35.41 98.98, -35.26 97.76 M-37.84 100.96 C-36.77 100.32, -36.19 99.48, -34.91 97.94 M-8.73 66.17 C1.64 53.86, 12.39 44.04, 32.23 18.56 M-5.93 66.51 C7.25 48, 23.03 32.18, 34.71 17.87 M-3.6 67.04 C4.53 55.87, 11.46 46.93, 35.39 25.86 M-1.65 66.51 C11.11 52.85, 22.26 38.55, 35.2 24.43 M3.13 63.94 C17.53 51.81, 28.72 37.42, 34.69 32.86 M3.15 65.23 C13.05 55.64, 21.54 44.43, 33.77 30.1 M10.36 64.84 C14.77 58.06, 20.81 52.73, 33.17 37.53 M8.52 65.63 C16.13 57.04, 24.3 49.03, 34.23 37.06 M13.42 65.8 C20.04 61.33, 23.44 56.14, 35.08 43.57 M14.83 65.97 C20.34 58.91, 26.37 52.77, 33.46 43.48 M19.92 65.86 C22.36 62.97, 26.54 57.62, 31.64 49.02 M21.07 65.26 C25.33 59.47, 28.56 55.65, 33.54 50.69 M-57.73 96.9 C-57.73 96.9, -57.73 96.9, -57.73 96.9 M-57.73 96.9 C-57.73 96.9, -57.73 96.9, -57.73 96.9 M-49.42 101.86 C-50.29 97.48, -53.33 92.01, -63.23 85.6 M-47.5 101.24 C-52.57 96.76, -56.19 91.34, -64.14 87.63 M-43.36 100.55 C-47.08 94.34, -54.78 87.47, -67.17 79.27 M-42.06 100.46 C-48.1 95.9, -52.21 91.4, -65.35 79.66 M-35.24 99.21 C-42.03 94.82, -51.21 89.24, -66.27 72.64 M-36.47 100.18 C-44.81 92.63, -51.71 85.8, -66.52 73.44 M-37.37 95.53 C-47.51 85.04, -56.21 75.1, -65.02 67.29 M-35.43 95.28 C-43.97 87.52, -50.41 81.39, -65.32 68.38 M-35.82 90.2 C-44.35 83.89, -49.53 75.91, -67.09 63.24 M-36.45 88.77 C-43.2 81.22, -51.32 75.54, -65.73 62.55 M-35.57 84.72 C-45.73 76.97, -53.73 69.07, -64.15 58.53 M-36.54 84.18 C-43.95 76.26, -51.1 71.04, -66.4 56.79 M-35.66 78.97 C-46.08 70.03, -54.31 59.99, -65.55 53.57 M-34.93 79.68 C-44.98 72.65, -52.62 65.8, -65.86 53.64 M-32.53 73.55 C-44.92 67.68, -51.51 59.87, -65.42 48.73 M-34.01 74.98 C-43.32 68.07, -50.39 61.65, -63.23 49.48 M-33.65 72.67 C-42.05 62.38, -49.45 56.06, -63.57 45.33 M-32.46 70.77 C-41.81 64.29, -49.56 56.47, -62.65 46.08 M-31.17 68.49 C-40.34 58.64, -50.06 52.89, -60.57 43.25 M-28.5 67.68 C-40.17 58.86, -52.87 48.95, -59.96 42.77 M-24.25 67.4 C-37.38 55.26, -47.09 47.45, -58.15 37.85 M-25.8 67.01 C-34.11 58.05, -43.43 51.31, -56.63 37.97 M-20.98 65.59 C-26.72 58.13, -34.89 54.2, -52.35 36.31 M-20.89 65 C-33.06 56.54, -44.06 44.76, -54.45 36.04 M-16.22 64.79 C-26.88 53.06, -37.35 45.53, -48.34 35.93 M-16.66 65.03 C-26.4 53.99, -39.34 45.19, -50 34.13 M-10.76 65.77 C-19.76 53.22, -33.75 45.41, -43.33 34.35 M-11 63.73 C-24.12 51.97, -36 40.8, -45.02 35.02 M-5.91 63.4 C-14.44 53.04, -24.72 46.69, -37.23 32.64 M-5.01 64.58 C-15.1 54.63, -27.52 45.14, -38.68 34.72 M0.11 63.56 C-9.87 53.82, -16.13 44.97, -31.68 32.76 M1.07 63.38 C-4.75 58.28, -12.87 52.03, -32.21 34.55 M9.03 64.72 C-0.61 57.65, -10.12 47.95, -25.52 35.99 M7.21 64.46 C-3.23 53.37, -16.06 42.67, -25.85 34.06 M-31.23 29.83 C-31.23 29.83, -31.23 29.83, -31.23 29.83 M-31.23 29.83 C-31.23 29.83, -31.23 29.83, -31.23 29.83 M16.51 65.46 C5.41 56.45, -8.49 45.04, -18.87 35.28 M14.99 64.86 C7.36 57.79, -0.47 52.03, -21.28 34.87 M-26.26 29.85 C-27.53 28.86, -28.29 27.31, -31.78 23.96 M-25.88 29.57 C-27.73 27.82, -29.98 26.06, -31.33 24.44 M21.12 63.85 C8.12 52.51, -7.84 42.92, -12.91 33.19 M21.33 63.68 C7.82 53.22, -2.93 43.71, -14.42 34.42 M-18.18 28.42 C-23.98 26.42, -26.56 22.6, -32.19 19.95 M-19.73 28.96 C-21.3 26.9, -25.24 24.89, -30.96 19.27 M24.04 63.98 C13.53 55.46, 4.64 44.8, -7.28 35.07 M25.17 62.79 C14.52 53, 2.72 43.96, -8.34 33.82 M-14.26 29.62 C-17.06 25.89, -22.28 22.23, -33.42 12.78 M-12.91 28.58 C-17.92 26.27, -21.73 22.68, -30.89 13.46 M27.62 59.56 C17.55 51.52, 10.39 46.68, -1.13 34.45 M27.97 59.85 C20.96 52.97, 11.86 46.06, -1.29 33.5 M-6.21 31.34 C-16.23 24.68, -21.26 16.65, -32.2 10.03 M-6.33 30.24 C-14.5 23.26, -24.24 16.28, -29.77 10.03 M29.66 55.83 C24.38 50.7, 17.96 45.51, 3.27 30.49 M29.96 58.21 C21.4 49.77, 12.21 41.58, 1.69 32.7 M-0.51 29.12 C-7.69 25.87, -14.1 20.42, -28.78 5.96 M-1.53 29.56 C-11.22 20.62, -22.27 12.69, -27.9 5.46 M31.39 53.61 C12.56 37.14, -8.41 20.38, -24.55 5.62 M32.16 52.98 C9.84 33.71, -10.91 16.07, -24.28 3.04 M33.81 47.7 C12.42 33.14, -4.23 17.46, -20.37 3.82 M32.2 48.37 C16.01 33.82, 0.49 20.35, -19.47 1.57 M34.59 44.96 C14.57 29.22, -4.14 13.25, -14.19 1.48 M35.49 44.61 C19.7 32.15, 4.4 20.26, -14.86 0.57 M34.42 40.54 C18.82 26.94, 6.11 12.51, -10.74 -0.16 M34.57 40.41 C24.76 31.99, 16.2 22.62, -9.9 -0.74 M36.73 32.83 C21.83 22.92, 12.1 14.21, -6.9 0.02 M35.91 34.64 C23.46 23.42, 9.87 13.76, -5.03 -1.26 M37.07 30.47 C26.6 19.65, 15.53 12.61, 1.66 -1.9 M35.72 29.88 C27.69 21.95, 19.56 14.67, 0.06 -0.49 M35.64 22.7 C28.07 17.17, 21.14 13.59, 7.84 1.28 M35.02 23.29 C28.2 18.68, 22.18 13.21, 6.33 0.3 M33.51 16.27 C29.03 14.29, 24.63 9.48, 15.3 -0.41 M32.17 16.13 C24.99 9.82, 18.29 3.52, 13.91 0.29 M30.25 9.34 C29.33 7.78, 27.9 6.63, 26.98 5.48 M30.43 9.06 C29.4 8.32, 28.86 7.53, 26.52 5.93" stroke="#366d9a" stroke-width="0.5" fill="none"/><path d="M0 0 C0 0, 0 0, 0 0 M0 0 C0 0, 0 0, 0 0 M0.08 -0.1 C-0.74 0.1, -1.67 0.14, -3.17 0.06 M-0.04 -0.12 C-0.88 0.12, -1.72 -0.13, -3.21 0.19 M-3.23 0.12 C-3.94 -0.14, -4.67 0.12, -6.18 0.21 M-3.16 0.11 C-3.92 0.12, -4.97 0.1, -5.99 0.08 M-6.24 0.12 C-6.88 0.01, -7.71 0.56, -8.68 0.45 M-6.13 0.1 C-6.67 0.09, -7.47 0.37, -8.64 0.48 M-8.86 0.2 C-9.23 0.56, -10.32 0.61, -11.05 0.51 M-8.85 0.45 C-9.79 0.52, -10.58 0.53, -11.36 0.67 M-11.34 0.82 C-11.94 0.5, -12.67 0.63, -13.5 1.18 M-11.35 0.64 C-11.93 0.75, -12.39 0.83, -13.52 0.98 M-13.7 0.9 C-14.25 1.19, -14.84 1.29, -15.64 1.5 M-13.66 0.98 C-14.46 1.08, -15.18 1.19, -15.64 1.46 M-15.75 1.4 C-16.01 1.43, -16.71 1.42, -17.88 1.95 M-15.76 1.32 C-16.3 1.5, -16.9 1.73, -17.72 1.92 M-17.89 1.74 C-18.39 2.17, -19.02 2.12, -19.57 2.22 M-17.65 1.8 C-18.08 1.89, -18.43 2.1, -19.64 2.25 M-19.48 2.21 C-20.01 2.41, -20.94 2.82, -21.12 2.72 M-19.52 2.39 C-19.94 2.39, -20.36 2.5, -21.21 2.93 M-21.1 2.86 C-21.54 2.86, -21.8 3.25, -22.66 3.43 M-21.24 2.82 C-21.53 3.04, -21.94 3.09, -22.73 3.38 M-22.62 3.37 C-23.16 3.74, -23.28 3.84, -24.03 4.21 M-22.71 3.44 C-23.09 3.62, -23.54 3.79, -24.04 4.14 M-24.22 4.16 C-24.39 4.28, -24.74 4.43, -25.2 4.63 M-24.1 4.03 C-24.42 4.33, -24.89 4.51, -25.28 4.71 M-25.26 4.65 C-25.64 4.97, -25.95 4.96, -26.42 5.27 M-25.32 4.78 C-25.63 4.92, -25.86 5.1, -26.39 5.41 M-26.42 5.41 C-26.74 5.54, -27.08 5.85, -27.4 5.99 M-26.37 5.33 C-26.67 5.58, -26.91 5.79, -27.45 6.11 M-27.51 6.07 C-27.75 6.34, -27.96 6.55, -28.36 6.73 M-27.44 6.07 C-27.68 6.22, -27.88 6.45, -28.28 6.77 M-28.28 6.77 C-28.59 6.97, -28.94 7.26, -29 7.55 M-28.25 6.77 C-28.55 7.08, -28.88 7.33, -29 7.48 M-29.12 7.42 C-29.32 8.04, -29.93 8.46, -30.18 8.77 M-29.03 7.49 C-29.28 7.84, -29.69 8.29, -30.25 8.89 M-30.26 8.9 C-30.66 9.45, -30.74 9.81, -31.19 10.04 M-30.28 8.8 C-30.5 9.35, -30.98 9.92, -31.14 10.17 M-31.06 10.33 C-31.17 10.56, -31.24 10.8, -31.59 11.48 M-31.05 10.14 C-31.23 10.51, -31.38 10.71, -31.63 11.44 M-31.72 11.45 C-31.67 11.66, -31.85 11.83, -32.05 12.62 M-31.74 11.46 C-31.86 11.83, -31.85 12.15, -32.07 12.63 M-32.01 12.54 C-32.15 12.84, -32.16 13.08, -32.18 13.52 M-32.05 12.56 C-32.1 12.92, -32.19 13.27, -32.2 13.52 M-32.2 13.59 C-32.28 13.84, -32.25 14.1, -32.21 14.21 M-32.19 13.54 C-32.21 13.68, -32.23 13.9, -32.24 14.27 M-32.29 14.25 C-32.23 14.41, -32.24 14.54, -32.27 14.73 M-32.29 14.27 C-32.29 14.41, -32.25 14.54, -32.28 14.75 M-32.25 14.76 C-32.25 14.78, -32.26 14.85, -32.25 14.92 M-32.26 14.75 C-32.26 14.79, -32.26 14.84, -32.25 14.92 M-32.49 15.54 C-30.7 19.66, -32.85 21.94, -31.21 29.72 M-31.74 15.35 C-32.18 20.11, -31.89 24.25, -31.89 30.27 M-30.95 30.08 C-23.24 28.48, -14.01 29.79, -0.74 31.99 M-31.95 30.41 C-19.49 31.05, -7.45 29.83, 0.74 30.17 M0.99 30.2 C1.03 32.15, 0.81 33.13, 0.95 35.13 M0.52 30.35 C0.6 31.96, 0.64 33.33, 0.83 35.19 M-0.91 34.41 C-15.76 34.98, -27.86 34.21, -44.27 33.72 M1.55 34.74 C-13.75 34.22, -30.14 35.44, -45.01 34.56 M-45.25 35.01 C-45.25 35.01, -45.25 35.01, -45.25 35.01 M-45.25 35.01 C-45.25 35.01, -45.25 35.01, -45.25 35.01 M-45.25 35 C-45.27 35.01, -45.29 35, -45.31 35 M-45.24 35.01 C-45.27 35, -45.29 35, -45.31 35 M-45.31 35 C-45.39 35, -45.45 34.98, -45.48 35 M-45.3 34.99 C-45.39 34.99, -45.46 35, -45.49 34.98 M-45.48 34.99 C-45.6 34.95, -45.66 34.99, -45.76 34.97 M-45.5 34.97 C-45.58 34.98, -45.68 34.99, -45.78 34.99 M-45.79 34.98 C-45.94 35, -46.05 34.97, -46.16 34.94 M-45.77 34.97 C-45.87 34.98, -45.99 34.98, -46.18 34.97 M-46.16 35.03 C-46.62 34.91, -47.13 35.04, -47.27 35.05 M-46.23 35 C-46.49 34.95, -46.83 35.01, -47.32 34.99 M-47.25 35.09 C-47.63 34.97, -47.93 35.12, -48.73 35.07 M-47.25 35.04 C-47.59 35.05, -47.97 35.1, -48.71 35.11 M-48.58 35.14 C-49.11 35.25, -49.56 35.23, -50.21 35.45 M-48.71 35.16 C-49.22 35.29, -49.58 35.4, -50.27 35.52 M-50.53 35.3 C-51.05 35.55, -51.43 35.68, -52.38 35.92 M-50.38 35.48 C-50.82 35.68, -51.2 35.68, -52.16 36.05 M-52.23 36.06 C-52.83 36.23, -53.24 36.33, -54.1 37.05 M-52.16 36.15 C-52.98 36.41, -53.87 36.69, -54.1 37 M-54.09 36.82 C-55.03 37.46, -55.74 37.52, -56.35 38.2 M-54.3 36.95 C-54.76 37.26, -55.07 37.44, -56.16 38.13 M-56.35 38.07 C-56.46 38.36, -56.79 38.41, -57.28 38.8 M-56.24 38.1 C-56.52 38.33, -56.95 38.63, -57.32 38.91 M-57.29 38.9 C-57.56 39.09, -57.99 39.39, -58.27 39.83 M-57.26 38.86 C-57.51 39.04, -57.76 39.27, -58.33 39.75 M-58.28 39.79 C-58.6 40.14, -58.93 40.37, -59.29 40.82 M-58.34 39.73 C-58.63 40.03, -58.83 40.18, -59.38 40.64 M-59.17 40.81 C-59.57 41.07, -60.02 41.36, -60.16 41.73 M-59.34 40.61 C-59.76 41.13, -60.1 41.63, -60.28 41.81 M-60.39 41.89 C-60.53 42.08, -61.05 42.45, -61.34 43.11 M-60.22 41.78 C-60.62 42.17, -60.98 42.55, -61.26 42.97 M-61.15 43.1 C-61.35 43.18, -61.68 43.52, -62.13 44.44 M-61.26 43.05 C-61.42 43.43, -61.82 43.86, -62.22 44.36 M-62.16 44.25 C-62.36 44.95, -62.82 45.41, -63.04 46 M-62.1 44.34 C-62.43 44.85, -62.57 45.26, -63.03 45.86 M-63.11 46.01 C-63.39 46.71, -63.51 47, -63.96 47.47 M-62.92 45.88 C-63.23 46.26, -63.44 46.54, -63.89 47.49 M-63.85 47.59 C-63.94 47.77, -63.98 48.37, -64.67 49.47 M-63.77 47.59 C-64.03 48.1, -64.22 48.64, -64.51 49.42 M-64.48 49.41 C-64.68 49.81, -64.84 50.48, -65.19 51.48 M-64.6 49.4 C-64.62 49.85, -64.77 50.16, -65.15 51.43 M-65.31 51.38 C-65.19 52.12, -65.44 52.91, -65.85 53.45 M-65.19 51.45 C-65.36 52.03, -65.49 52.56, -65.82 53.5 M-65.96 53.49 C-65.97 54.17, -65.84 54.48, -66.37 55.7 M-65.92 53.55 C-66.01 53.94, -66.01 54.43, -66.33 55.86 M-66.12 55.96 C-66.39 56.22, -66.56 57.32, -66.63 58.22 M-66.36 55.78 C-66.41 56.29, -66.51 56.81, -66.61 58.35 M-66.58 58.49 C-66.55 58.99, -66.61 59.46, -67.19 61.31 M-66.76 58.42 C-66.9 59.62, -67.03 60.7, -66.95 61.13 M-67.25 60.9 C-67.01 61.87, -67.4 62.78, -67.2 64.17 M-67.04 61.08 C-66.96 61.97, -66.99 63.08, -67.09 63.95 M-67.39 64.03 C-67.14 64.89, -67.26 66.43, -67.53 67.28 M-67.15 64.1 C-67.26 65.21, -67.26 66.48, -67.21 67.28 M-67.33 67.08 C-67.2 68.09, -67.01 69.2, -67.35 70.24 M-67.28 67.2 C-67.29 68.23, -67.3 69.46, -67.2 70.37 M-67.36 70.56 C-67.18 71.26, -67.17 71.86, -67.04 73.43 M-67.11 70.42 C-67.06 71.14, -67.09 72.17, -66.9 73.27 M-67.04 73.12 C-66.85 74.1, -67.03 75.47, -66.91 75.95 M-66.94 73.2 C-67.06 73.87, -67 74.4, -66.8 76.19 M-66.83 76.21 C-66.67 77.29, -66.66 78.09, -66.55 78.72 M-66.88 76.07 C-66.76 77.04, -66.54 77.72, -66.48 78.73 M-66.4 78.84 C-66.1 79.57, -66 80.64, -65.96 81.16 M-66.31 78.51 C-66.38 79.11, -66.35 79.72, -65.97 81.07 M-66.15 80.84 C-65.83 81.85, -65.55 82.94, -65.46 83.22 M-66.06 81.08 C-65.72 81.8, -65.51 82.71, -65.55 83.15 M-65.69 83.14 C-65.16 83.56, -65.26 84.18, -65.05 85.4 M-65.57 83.21 C-65.33 83.75, -65.23 84.29, -64.93 85.17 M-64.81 85.29 C-64.84 85.72, -64.38 86.68, -64.12 87.15 M-64.97 85.16 C-64.6 85.93, -64.35 86.6, -64.34 87.15 M-64.18 87.07 C-63.99 87.55, -63.86 87.77, -63.43 88.81 M-64.3 87.04 C-64.05 87.44, -63.89 87.85, -63.56 88.78 M-63.63 88.96 C-63.16 89.18, -62.93 89.77, -62.96 90.46 M-63.58 88.86 C-63.34 89.21, -63.21 89.71, -62.84 90.44 M-62.69 90.41 C-62.48 90.87, -62.43 91.12, -62.08 91.77 M-62.81 90.42 C-62.58 90.7, -62.44 91, -62.08 91.7 M-61.91 91.8 C-61.84 92.15, -61.75 92.43, -61.22 92.92 M-62 91.71 C-61.6 92.3, -61.29 92.8, -61.11 93.1 M-61.06 93.15 C-60.75 93.47, -60.47 94.05, -60.45 94.21 M-61.16 93.12 C-60.95 93.39, -60.57 93.79, -60.3 94.15 M-60.41 94.31 C-59.99 94.39, -59.84 94.87, -59.47 95.11 M-60.37 94.27 C-59.97 94.51, -59.71 94.87, -59.49 95.26 M-59.34 95.15 C-59.06 95.52, -58.76 95.93, -58.53 96.08 M-59.44 95.29 C-59.19 95.58, -58.83 95.75, -58.6 96.11 M-58.66 96.08 C-58.33 96.35, -57.99 96.77, -57.74 96.99 M-58.54 96.15 C-58.21 96.46, -57.81 96.81, -57.59 96.92 M-57.86 96.85 C-57.34 97.26, -56.51 97.44, -56.06 98.09 M-57.59 97.03 C-57.18 97.23, -56.74 97.53, -55.79 98.3 M-56.04 98.34 C-55.26 98.77, -54.91 98.96, -53.99 99.1 M-55.79 98.25 C-55.09 98.62, -54.42 99.07, -54.17 99.23 M-53.97 99.13 C-53.6 99.44, -53.43 99.43, -52.45 99.91 M-54.21 99.17 C-53.68 99.42, -53.32 99.65, -52.52 99.98 M-52.48 99.88 C-52.23 99.96, -51.59 100.04, -51.12 100.28 M-52.51 99.89 C-52.21 100.07, -51.85 100.07, -51.01 100.38 M-51.01 100.28 C-50.68 100.29, -50.31 100.57, -49.87 100.64 M-51.02 100.32 C-50.77 100.41, -50.43 100.49, -49.76 100.54 M-49.73 100.55 C-49.39 100.6, -49.05 100.62, -48.9 100.63 M-49.86 100.62 C-49.44 100.62, -49.06 100.64, -48.9 100.63 M-48.88 100.66 C-48.68 100.72, -48.54 100.64, -48.21 100.64 M-48.89 100.69 C-48.71 100.7, -48.54 100.67, -48.29 100.71 M-48.27 100.69 C-48.19 100.69, -48.16 100.69, -48.1 100.69 M-48.25 100.7 C-48.21 100.7, -48.15 100.69, -48.09 100.69 M-48.1 100.69 C-48.09 100.69, -48.07 100.69, -48.05 100.69 M-48.1 100.69 C-48.08 100.69, -48.06 100.69, -48.04 100.69 M-47.72 100.43 C-45.16 100.78, -41.81 100.68, -36.3 101.35 M-47.98 100.52 C-44.83 100.43, -41.15 100.34, -36.47 100.44 M-36.43 101.33 C-36.24 95.74, -37.8 89.55, -36.56 85.63 M-37.14 100.16 C-36.54 96.56, -36.3 91.99, -36.54 84.78 M-36.58 84.59 C-36.58 84.59, -36.58 84.59, -36.58 84.59 M-36.58 84.59 C-36.58 84.59, -36.58 84.59, -36.58 84.59 M-36.58 84.58 C-36.58 84.56, -36.58 84.54, -36.58 84.53 M-36.58 84.58 C-36.58 84.56, -36.58 84.55, -36.58 84.53 M-36.58 84.52 C-36.59 84.49, -36.58 84.44, -36.59 84.37 M-36.58 84.54 C-36.59 84.48, -36.58 84.44, -36.58 84.37 M-36.61 84.34 C-36.6 84.21, -36.59 83.92, -36.59 83.7 M-36.57 84.34 C-36.58 84.12, -36.55 83.86, -36.58 83.75 M-36.54 83.69 C-36.54 83.48, -36.45 82.97, -36.44 82.78 M-36.58 83.77 C-36.5 83.42, -36.55 82.98, -36.51 82.79 M-36.53 82.9 C-36.44 82.48, -36.35 82.32, -36.45 81.51 M-36.54 82.86 C-36.48 82.48, -36.46 82.11, -36.35 81.59 M-36.44 81.67 C-36.25 80.94, -36.12 80.59, -36.27 80.24 M-36.38 81.51 C-36.28 80.98, -36.14 80.52, -36.08 80.1 M-36.2 80.09 C-35.99 79.66, -36.01 79.1, -35.89 78.38 M-36.14 80.21 C-35.96 79.65, -35.83 79.07, -35.74 78.49 M-35.62 78.47 C-35.54 77.78, -35.25 77.41, -35.3 76.89 M-35.67 78.56 C-35.49 77.8, -35.35 77.27, -35.19 76.81 M-35.09 76.73 C-34.89 76.31, -34.89 75.79, -34.34 74.87 M-35.16 76.82 C-34.96 76.27, -34.7 75.59, -34.52 75.07 M-34.44 74.81 C-34.17 74.42, -33.97 73.93, -33.54 73.15 M-34.41 74.94 C-34.19 74.3, -33.76 73.66, -33.47 73.1 M-33.65 73.31 C-33.18 72.54, -32.57 72.01, -32.43 71.57 M-33.46 73.14 C-33.13 72.64, -32.72 71.99, -32.32 71.37 M-32.32 71.59 C-31.55 70.99, -31.2 70.37, -30.65 69.73 M-32.34 71.53 C-32.01 71.04, -31.7 70.72, -30.76 69.82 M-30.57 69.99 C-30.07 69.63, -29.73 68.99, -28.88 68.61 M-30.74 69.9 C-30.09 69.26, -29.29 68.71, -28.88 68.43 M-28.96 68.36 C-28.69 68.23, -28.4 68.02, -27.75 67.71 M-28.84 68.38 C-28.57 68.2, -28.18 68.01, -27.81 67.69 M-27.72 67.68 C-27.45 67.55, -27.15 67.3, -26.68 67.26 M-27.83 67.67 C-27.36 67.48, -26.96 67.32, -26.67 67.14 M-26.61 67.22 C-26.16 67.03, -25.78 66.69, -25.39 66.56 M-26.65 67.12 C-26.3 66.94, -25.93 66.82, -25.41 66.7 M-25.41 66.56 C-24.96 66.38, -24.33 66.25, -24.14 66.23 M-25.4 66.57 C-24.94 66.53, -24.59 66.35, -24.15 66.25 M-24.05 66.18 C-23.86 66.18, -23.48 65.95, -22.59 65.85 M-24.1 66.13 C-23.71 66.12, -23.19 65.96, -22.72 65.92 M-22.63 65.72 C-22.27 65.83, -21.7 65.81, -21.2 65.69 M-22.66 65.8 C-22.26 65.71, -21.82 65.66, -21.13 65.55 M-21.13 65.43 C-20.54 65.63, -20.08 65.64, -19.41 65.4 M-21.04 65.58 C-20.74 65.55, -20.4 65.58, -19.39 65.43 M-19.31 65.52 C-19.09 65.46, -18.45 65.35, -17.81 65.33 M-19.45 65.37 C-18.73 65.44, -18.28 65.42, -17.62 65.44 M-18.27 67 C-9.22 66.72, -2.65 63.6, 14.61 65.51 M-18.19 64.47 C-6.36 65.35, 4.92 64.93, 14.46 65.38 M14.88 65.38 C14.88 65.38, 14.88 65.38, 14.88 65.38 M14.88 65.38 C14.88 65.38, 14.88 65.38, 14.88 65.38 M14.88 65.37 C14.89 65.37, 14.91 65.37, 14.93 65.38 M14.88 65.37 C14.9 65.38, 14.92 65.37, 14.93 65.37 M14.93 65.39 C14.97 65.37, 15 65.36, 15.08 65.39 M14.93 65.38 C14.98 65.37, 15.01 65.37, 15.09 65.37 M15.05 65.42 C15.29 65.38, 15.46 65.34, 15.71 65.37 M15.09 65.37 C15.31 65.36, 15.51 65.34, 15.69 65.36 M15.64 65.3 C16.08 65.33, 16.33 65.26, 16.65 65.33 M15.7 65.35 C15.99 65.34, 16.3 65.34, 16.53 65.31 M16.49 65.25 C17.07 65.16, 17.44 65.1, 17.72 65.21 M16.51 65.29 C16.91 65.22, 17.16 65.16, 17.77 65.11 M17.7 65.18 C18.21 65.04, 18.64 65.01, 19.06 65.01 M17.7 65.17 C18.26 65.03, 18.75 64.99, 19.18 64.85 M19 64.98 C19.39 64.74, 19.98 64.79, 20.75 64.46 M19.08 64.94 C19.51 64.74, 20.03 64.64, 20.69 64.6 M20.54 64.38 C20.92 64.55, 21.53 64.2, 22.33 63.98 M20.71 64.6 C21.19 64.28, 21.76 64.15, 22.34 64.07 M22.4 63.84 C23.01 63.85, 23.51 63.38, 24.11 63.36 M22.31 64.05 C22.92 63.77, 23.68 63.42, 23.96 63.29 M24.18 63.38 C24.44 63.18, 24.92 62.67, 25.91 62.38 M24.09 63.22 C24.52 62.89, 25.01 62.62, 25.64 62.35 M25.72 62.17 C26.34 62.12, 26.97 61.49, 27.4 61 M25.68 62.35 C26.34 62.03, 26.71 61.63, 27.42 61.26 M27.25 61.09 C27.65 60.78, 28.09 60.69, 28.94 59.63 M27.4 61.23 C27.84 60.81, 28.12 60.56, 28.94 59.68 M29.02 59.71 C29.39 59.07, 29.98 58.78, 30.44 58.03 M28.94 59.73 C29.5 59.15, 29.84 58.48, 30.34 57.98 M30.39 58.06 C30.56 57.72, 30.75 57.37, 30.84 56.99 M30.27 58.1 C30.49 57.77, 30.78 57.4, 30.96 57.11 M30.95 57.09 C31.11 56.91, 31.22 56.64, 31.46 56.07 M30.96 57.1 C31.06 56.67, 31.35 56.35, 31.45 55.98 M31.4 55.91 C31.47 55.81, 31.62 55.35, 31.98 54.82 M31.46 55.96 C31.63 55.75, 31.76 55.46, 32.02 54.89 M31.9 54.77 C31.98 54.41, 32.21 54.15, 32.44 53.49 M32 54.81 C32.13 54.41, 32.28 53.96, 32.41 53.58 M32.47 53.66 C32.36 53.16, 32.65 52.87, 32.68 52.23 M32.32 53.61 C32.47 53.15, 32.67 52.65, 32.68 52.31 M32.72 52.28 C32.83 51.65, 32.84 51.11, 32.92 50.9 M32.71 52.3 C32.82 51.91, 32.86 51.59, 33.03 50.82 M33.01 50.8 C32.97 50.49, 32.99 50.09, 32.97 49.37 M33.04 50.88 C33.04 50.35, 33.1 49.91, 33.15 49.29 M33.02 49.4 C33.19 49.03, 32.98 48.51, 33.12 47.72 M33.13 49.25 C33.2 48.79, 33.2 48.17, 33.09 47.65 M31.48 48.38 C34.64 36.4, 31.54 26.7, 34.76 19.1 M33.71 48.21 C34.06 35.55, 33.8 24.01, 33.37 17.04 M33.17 17.98 C33.17 17.98, 33.17 17.98, 33.17 17.98 M33.17 17.98 C33.17 17.98, 33.17 17.98, 33.17 17.98 M33.18 17.99 C33.18 17.94, 33.18 17.87, 33.17 17.76 M33.18 17.98 C33.18 17.92, 33.18 17.84, 33.19 17.78 M33.17 17.77 C33.19 17.53, 33.26 17.42, 33.19 17.23 M33.22 17.78 C33.17 17.58, 33.23 17.31, 33.22 17.22 M33.26 17.24 C33.13 16.96, 33.21 16.92, 33.23 16.35 M33.24 17.25 C33.23 17.02, 33.17 16.81, 33.17 16.36 M33.2 16.38 C33.2 16.08, 33.03 15.56, 32.92 15.2 M33.17 16.35 C33.18 15.86, 33.03 15.48, 33.02 15.17 M33.03 15.15 C32.92 14.68, 32.88 14.16, 32.77 13.88 M33.06 15.23 C32.89 14.68, 32.8 14.3, 32.74 13.79 M32.84 13.94 C32.72 13.3, 32.33 13.09, 32.24 12.18 M32.65 13.85 C32.57 13.38, 32.34 12.99, 32.15 12.34 M32.22 12.47 C31.93 11.65, 31.55 10.93, 31.36 10.58 M32.2 12.33 C31.95 11.87, 31.69 11.31, 31.25 10.74 M31.26 10.68 C30.82 10.23, 30.33 9.47, 30.01 8.87 M31.35 10.71 C30.85 10.13, 30.69 9.62, 30.05 8.92 M30.06 9.07 C29.85 8.85, 29.5 8.38, 29.27 8.07 M30.02 8.95 C29.83 8.74, 29.52 8.49, 29.28 8.13 M29.2 8.08 C29.09 7.99, 28.77 7.66, 28.54 7.42 M29.28 8.19 C29.09 7.91, 28.83 7.8, 28.4 7.32 M28.4 7.19 C27.98 7.06, 27.82 6.71, 27.35 6.41 M28.44 7.31 C28.11 7.02, 27.75 6.67, 27.41 6.48 M27.47 6.47 C27.15 6.31, 26.75 5.87, 26.19 5.82 M27.48 6.45 C26.97 6.27, 26.69 5.9, 26.28 5.64 M26.23 5.74 C26.11 5.61, 25.77 5.5, 25.07 4.77 M26.25 5.65 C26.05 5.6, 25.81 5.37, 25.04 4.94 M25.14 4.92 C24.5 4.6, 24.3 4.36, 23.7 4.11 M24.99 4.93 C24.53 4.64, 24.01 4.31, 23.65 4.19 M23.57 4.19 C23.15 4.11, 22.73 3.68, 22.13 3.38 M23.64 4.16 C23.13 3.91, 22.48 3.71, 21.99 3.48 M21.92 3.56 C21.29 3.26, 20.98 3.01, 20.17 2.74 M22.05 3.53 C21.71 3.28, 21.33 3.28, 20.28 2.72 M20.19 2.9 C19.71 2.54, 18.8 2.26, 18.48 2.12 M20.34 2.78 C19.74 2.71, 19.17 2.39, 18.5 2.19 M18.6 2.1 C17.87 1.83, 17.07 1.97, 16.45 1.77 M18.53 2.21 C17.72 1.88, 16.92 1.84, 16.42 1.68 M16.41 1.72 C15.86 1.39, 15.17 1.48, 13.97 1.17 M16.34 1.68 C15.76 1.56, 14.96 1.39, 14.2 1.15 M14.02 0.98 C13.67 1.01, 12.92 0.94, 11.73 0.93 M14.12 1.08 C13.32 1.14, 12.23 0.76, 11.78 0.66 M11.92 0.59 C10.88 0.68, 9.95 0.45, 8.88 0.24 M11.69 0.7 C11.19 0.73, 10.43 0.57, 9.09 0.41 M9.03 0.25 C8.61 0.13, 7.95 0.11, 6.54 -0.04 M9.01 0.55 C8.34 0.39, 7.76 0.22, 6.18 0.21 M6.44 0.21 C5.11 0.02, 3.87 0.35, 3.02 -0.09 M6.15 0.25 C5.29 0.14, 4.57 0.06, 3.38 0 M3.06 -0.1 C2.21 0.12, 1.2 -0.27, 0.11 -0.04 M3.37 -0.09 C2.49 0.03, 1.91 -0.05, -0.06 -0.04 M0 0 C0 0, 0 0, 0 0 M0 0 C0 0, 0 0, 0 0 M0 0 C0 0, 0 0, 0 0 M0 0 C0 0, 0 0, 0 0" stroke="#366d9a" stroke-width="1" fill="none"/></g></g><mask/><g stroke-linecap="round"><g transform="translate(59.43325639147703 20.51500682935834) rotate(0 -0.000002023763663316913 5.9046593735344)" fill-rule="evenodd"><path d="M-4.15 1.69 C-4.15 1.69, -4.15 1.69, -4.15 1.69 M-4.15 1.69 C-4.15 1.69, -4.15 1.69, -4.15 1.69 M-5.17 8.47 C-2.28 4.82, -0.21 3.51, 1.91 0.46 M-5.08 8.54 C-2.02 6.24, 0.8 3.21, 2.35 0.61 M-3.12 10.81 C-0.49 9.54, 1.42 5.62, 4.42 2.41 M-2.12 11.24 C1.08 8.5, 2.99 5.7, 5.16 2.88 M-4.53 9.78 C-4.53 9.78, -4.53 9.78, -4.53 9.78 M-4.53 9.78 C-4.53 9.78, -4.53 9.78, -4.53 9.78 M2.32 10.34 C1.65 9.07, -1.53 7.47, -4.47 3.37 M2.84 10.26 C1 8.99, -1.48 7.38, -4.79 3.71 M5.03 7.74 C3.32 4.42, -0.32 2.93, -3.41 0.65 M5.26 8.15 C2.63 4.97, 0.58 2.77, -2.52 0.52" stroke="#366d9a" stroke-width="0.5" fill="none"/><path d="M0 0 C0 0, 0 0, 0 0 M0 0 C0 0, 0 0, 0 0 M-0.04 0.05 C0.43 0.06, 0.83 0.06, 1.2 0.07 M-0.05 -0.03 C0.42 0, 0.7 0.04, 1.25 0.12 M1.22 0.14 C1.5 0.33, 1.99 0.31, 2.32 0.49 M1.22 0.17 C1.55 0.24, 1.86 0.35, 2.26 0.46 M2.28 0.44 C2.45 0.56, 2.9 0.76, 3.34 0.97 M2.27 0.5 C2.61 0.67, 3.07 0.91, 3.35 1 M3.23 1.1 C3.6 1.14, 3.84 1.51, 4.12 1.82 M3.34 0.97 C3.61 1.29, 3.86 1.45, 4.19 1.73 M4.26 1.74 C4.35 2.07, 4.65 2.47, 5 2.55 M4.18 1.69 C4.39 2, 4.59 2.26, 4.9 2.58 M4.86 2.55 C5.14 2.87, 5.31 3.32, 5.51 3.66 M4.9 2.55 C5.01 2.82, 5.13 3.16, 5.49 3.56 M5.46 3.72 C5.5 3.86, 5.52 4.1, 5.85 4.7 M5.41 3.62 C5.53 3.92, 5.69 4.25, 5.84 4.73 M5.73 4.68 C5.93 4.92, 5.82 5.25, 5.84 5.8 M5.77 4.73 C5.8 5.18, 5.91 5.5, 5.85 5.95 M5.82 6.02 C5.78 6.25, 5.87 6.81, 5.68 7.01 M5.94 5.89 C5.82 6.33, 5.75 6.84, 5.82 7.06 M5.77 7.13 C5.58 7.5, 5.67 7.73, 5.42 8.11 M5.75 7.11 C5.74 7.29, 5.61 7.57, 5.39 8.17 M5.37 8.12 C5.38 8.58, 5.19 8.83, 5 9.18 M5.43 8.21 C5.22 8.55, 5.01 9.02, 4.95 9.19 M4.96 9.23 C4.7 9.47, 4.46 9.83, 4.1 10.09 M4.86 9.24 C4.74 9.41, 4.51 9.74, 4.17 10.06 M4.11 10.06 C3.94 10.29, 3.48 10.57, 3.2 10.73 M4.23 10.04 C4.01 10.23, 3.84 10.44, 3.32 10.81 M3.32 10.79 C2.85 10.97, 2.55 11.22, 2.22 11.31 M3.25 10.81 C3.02 11.01, 2.76 11.08, 2.34 11.34 M2.31 11.25 C2.08 11.37, 1.81 11.41, 1.16 11.65 M2.3 11.29 C1.99 11.41, 1.76 11.49, 1.2 11.74 M1.2 11.65 C0.73 11.62, 0.37 11.79, 0.11 11.91 M1.2 11.7 C0.97 11.69, 0.67 11.77, 0.03 11.84 M-0.02 11.89 C-0.22 11.73, -0.55 11.78, -1.24 11.68 M0.02 11.86 C-0.48 11.78, -0.92 11.71, -1.16 11.73 M-1.15 11.62 C-1.43 11.69, -1.86 11.43, -2.42 11.45 M-1.23 11.74 C-1.65 11.49, -2.06 11.4, -2.32 11.29 M-2.19 11.41 C-2.42 11.33, -2.65 11.2, -3.29 10.72 M-2.35 11.36 C-2.61 11.17, -3 11.06, -3.31 10.75 M-3.31 10.9 C-3.55 10.63, -3.82 10.45, -4.15 10.09 M-3.3 10.75 C-3.57 10.61, -3.9 10.28, -4.13 10.05 M-4.22 10.01 C-4.38 9.78, -4.61 9.58, -4.92 9.25 M-4.21 10.08 C-4.42 9.75, -4.63 9.5, -4.92 9.24 M-4.82 9.14 C-5 8.93, -5.16 8.72, -5.53 8.12 M-4.9 9.24 C-5.1 8.92, -5.17 8.65, -5.46 8.16 M-5.5 8.29 C-5.52 7.84, -5.6 7.33, -5.83 7.08 M-5.46 8.15 C-5.56 7.92, -5.66 7.49, -5.79 7.1 M-5.68 7.11 C-5.93 6.64, -5.88 6.22, -5.9 5.91 M-5.77 7.1 C-5.83 6.84, -5.88 6.57, -5.89 5.89 M-5.86 6.02 C-5.81 5.45, -5.93 5.18, -5.84 4.7 M-5.87 5.92 C-5.82 5.69, -5.82 5.42, -5.79 4.7 M-5.8 4.7 C-5.8 4.39, -5.63 4.01, -5.35 3.68 M-5.78 4.76 C-5.66 4.48, -5.65 4.17, -5.45 3.6 M-5.48 3.7 C-5.15 3.3, -5.05 3, -4.87 2.64 M-5.45 3.6 C-5.27 3.31, -5.15 3.05, -4.85 2.62 M-4.93 2.52 C-4.68 2.4, -4.5 2.11, -4.25 1.76 M-4.91 2.63 C-4.7 2.29, -4.42 2.09, -4.2 1.76 M-4.13 1.74 C-3.89 1.6, -3.74 1.47, -3.4 1.11 M-4.2 1.74 C-3.85 1.45, -3.55 1.19, -3.36 1.06 M-3.39 1.06 C-2.92 0.91, -2.81 0.66, -2.38 0.52 M-3.29 1.04 C-3.05 0.8, -2.72 0.68, -2.28 0.49 M-2.34 0.36 C-1.88 0.24, -1.49 0.3, -1.13 0.23 M-2.35 0.43 C-1.94 0.32, -1.51 0.21, -1.22 0.13 M-1.18 0.06 C-0.89 0.15, -0.32 0.13, -0.01 0 M-1.25 0.14 C-0.85 0.06, -0.46 0.07, 0.06 -0.01 M0 0 C0 0, 0 0, 0 0 M0 0 C0 0, 0 0, 0 0 M0 0 C0 0, 0 0, 0 0 M0 0 C0 0, 0 0, 0 0" stroke="#366d9a" stroke-width="1" fill="none"/></g></g><mask/><g stroke-linecap="round"><g transform="translate(78.70095644251639 145.57094417738907) rotate(0 17.018569412118644 -50.34746178301475)" fill-rule="evenodd"><path d="M-29.01 -59.67 C-29.01 -59.67, -29.01 -59.67, -29.01 -59.67 M-29.01 -59.67 C-29.01 -59.67, -29.01 -59.67, -29.01 -59.67 M-31.07 -50.41 C-29.73 -55.94, -24.03 -59.56, -19.81 -63.94 M-32.19 -50.28 C-27.25 -55.38, -22.82 -59.67, -20.4 -63.14 M-30.49 -46.45 C-24.69 -53.56, -20.32 -59.32, -15.05 -65.43 M-31.38 -45.59 C-24.88 -51.27, -19.46 -58.87, -13.16 -65.14 M-31.32 -38.39 C-22.73 -47.58, -15.29 -54.61, -7.33 -65.65 M-30.77 -40.4 C-26.86 -44.4, -21.7 -51.37, -8.22 -64.61 M-30.91 -34.77 C-19.47 -47.73, -10.84 -56.7, -3.55 -65.38 M-29.97 -34.18 C-23.68 -41.31, -14.16 -51.51, -3.57 -65.46 M-29.85 -28 C-20.27 -38.99, -9.62 -53.47, 2.27 -62.86 M-30.35 -26.56 C-19.52 -40.28, -8.29 -51.55, 1.06 -64.42 M-31.53 -20.78 C-16.94 -37.31, -5.24 -50.78, 6.7 -66.29 M-30.24 -21.19 C-21.83 -32.17, -11.3 -42.69, 6.29 -64.78 M37.65 -99.77 C37.65 -99.77, 37.65 -99.77, 37.65 -99.77 M37.65 -99.77 C37.65 -99.77, 37.65 -99.77, 37.65 -99.77 M-31.22 -11.42 C-18.62 -27.38, -8.78 -40.18, 11.86 -66.33 M-32.68 -12.88 C-14.8 -34.23, 2.61 -54.21, 12.72 -65.6 M36.7 -92.9 C37.94 -94.29, 39.15 -96.12, 43.28 -99.4 M37.18 -92.98 C38.9 -95.94, 40.98 -98.21, 42.58 -99.28 M-30.03 -10.35 C-14.86 -27.19, 5.05 -45.89, 17.51 -63.09 M-29.66 -10.01 C-14.91 -26, -2.51 -41.08, 17.81 -64.71 M38.67 -87.41 C41.65 -90.69, 43.73 -93.01, 50.05 -101.43 M37.68 -88.33 C41.52 -91.83, 45.74 -95.22, 48.78 -100.66 M-26.17 -4.71 C-8.71 -27.33, 10.87 -48.47, 23.02 -66.48 M-28.35 -6.73 C-14.59 -21.5, -3.37 -34.54, 23.74 -66.03 M35.59 -79.95 C42.17 -84.75, 46.5 -92.27, 55.12 -98.61 M37.07 -79.86 C40.75 -83.63, 44.49 -89.27, 52.8 -99.68 M-25.82 -3.37 C-17.79 -11.8, -12.54 -20.13, 2.33 -33.36 M-24.54 -4.74 C-15.15 -13.17, -6.12 -24.75, 1.65 -33.32 M-0.16 -34.58 C20.73 -52.33, 36.48 -73.43, 55.52 -99.3 M0.31 -34.29 C14.12 -47.43, 27.1 -62.01, 56.89 -97.43 M-19.72 -3.65 C-14.22 -6.64, -12.4 -12.82, 2.81 -27.66 M-19.25 -2.03 C-15.32 -9.28, -9.68 -15.42, 2.44 -28.2 M7.9 -35.05 C21.14 -51.15, 32.88 -67, 58.25 -95.41 M5.31 -33.37 C20.84 -47.71, 34.11 -63.98, 60.77 -94.08 M-17.8 -0.29 C-8.1 -10.63, -0.05 -16.82, 7.14 -26.43 M-17.33 -1.83 C-6.99 -11.54, 2.45 -22.9, 6.64 -28.31 M12.66 -33.79 C27.7 -52.21, 41.43 -66.04, 61.52 -91.1 M10.99 -34.21 C29.97 -55.96, 49.15 -76.16, 62.96 -92.04 M-10.6 -0.97 C-4.93 -9.26, 0.05 -14.88, 11.84 -28.05 M-10.93 -0.2 C-2.42 -11.37, 7.98 -22.19, 12.97 -27.43 M18.5 -33.45 C29.15 -46.85, 42.55 -62, 63.67 -87.77 M16.04 -32.99 C30.36 -49.16, 45.71 -65.36, 65.4 -88.76 M-5.83 -0.55 C1.01 -8.58, 8.64 -18.65, 19.44 -26.62 M-7.99 1.8 C-2.22 -4.77, 4.44 -12.71, 18.54 -27.89 M21.87 -34.11 C38.26 -50.31, 51.39 -66.88, 64.49 -84.94 M21.61 -34.17 C39.21 -53.25, 56.6 -73.08, 64.87 -83.72 M-1.86 -1.11 C8.15 -8.5, 16.82 -17.5, 23.95 -28.4 M-1.77 0.04 C2.43 -5.59, 8.79 -12.78, 22.25 -27.07 M26.04 -31.31 C40.39 -45.83, 52.41 -59.39, 65.83 -77.64 M27.97 -32.5 C40.99 -49.24, 55.85 -64.95, 67.53 -77.69 M5.13 0.87 C14.6 -10.64, 24.04 -20.1, 27.45 -29.12 M3.98 0.15 C11.55 -8.07, 19.97 -18.65, 29.41 -28.61 M34.32 -34 C42.58 -42.25, 49.28 -55.07, 67.01 -71.03 M33.81 -33.01 C43.53 -44.39, 54.58 -57.62, 66.39 -73.44 M8.37 -1.79 C15.57 -7.28, 18.12 -12.13, 35.48 -28.67 M8.3 -0.78 C13.88 -5.38, 19.83 -12.69, 33.15 -29.2 M36.85 -34.59 C47.6 -47.74, 61.2 -56.91, 68.11 -68.24 M38.99 -33 C45.11 -41.73, 52.55 -49.01, 68.51 -67.56 M16.54 -0.71 C20.2 -6.19, 24.13 -8.01, 33.76 -23.34 M14.97 0.05 C21.1 -8.2, 27.55 -15.78, 33.14 -22.75 M43.83 -34.93 C50.82 -41.46, 56.63 -48.93, 67.32 -59.33 M43.75 -34.06 C49.74 -39.39, 54.73 -45.71, 66.45 -61.4 M23.98 -3.21 C27.07 -7.62, 31.03 -11.61, 32.07 -15.47 M23.18 -3.83 C26.75 -7.45, 29.21 -11.02, 31.6 -14.49 M50.24 -34.53 C57.26 -43.19, 60.08 -49.19, 66.94 -55.54 M51.46 -36.32 C53.7 -39.22, 57.76 -42.85, 66.2 -53.34 M-28.23 -7.15 C-28.23 -7.15, -28.23 -7.15, -28.23 -7.15 M-28.23 -7.15 C-28.23 -7.15, -28.23 -7.15, -28.23 -7.15 M-14.87 -1.39 C-20.02 -8.68, -27.55 -13.08, -33.28 -15.61 M-16.07 -1.19 C-19.37 -6.19, -25.18 -8.05, -33.47 -17.11 M-7.61 -1.02 C-16.15 -8.69, -24.9 -13.74, -32.82 -19.71 M-9.54 -0.28 C-14.74 -5.66, -21.33 -11.69, -32 -19.7 M-0.91 0.49 C-13.98 -8.42, -23.49 -19.81, -31.76 -26.87 M-3.17 -0.99 C-13.6 -10.77, -25.01 -20.05, -30.57 -24.87 M2.06 -1.68 C-6.66 -11.68, -16 -19.83, -32.54 -30.73 M2.59 -1.76 C-7.48 -10.7, -17.36 -19.27, -31.92 -30.08 M8.49 -0.33 C-4.74 -14.99, -22.05 -26.99, -31.93 -34.33 M9.96 -2.23 C0.4 -9.3, -8.3 -17.36, -30.83 -36.29 M14.79 0.07 C3.89 -9.84, -7.28 -21.23, -32.36 -39.69 M15.04 -2.34 C1.85 -12.38, -12.31 -25.46, -31.15 -41.01 M18.93 -3.04 C9.28 -14.35, -2.42 -21.28, -33.01 -46.33 M18.69 -2.12 C-0.47 -18.38, -19.82 -35.44, -32.38 -48.23 M22.37 -3.32 C10.34 -15.78, -6.59 -29.74, -32.76 -52.94 M22.79 -4.22 C5.51 -19.16, -11.66 -35.04, -32.19 -53.54 M26.4 -7.94 C17.29 -15.81, 4.81 -24.97, -0.04 -29.47 M27.12 -5.73 C18.96 -14.29, 8.02 -22.57, 0.14 -29.65 M-1.02 -31.79 C-10.29 -37.41, -19.82 -45.98, -29.39 -59.03 M0.55 -29.83 C-8.83 -37, -16.71 -44.16, -30.35 -57.74 M30.47 -10.04 C24.75 -14.11, 14.66 -22.97, 5.15 -29.12 M31.29 -9.76 C22.82 -15.57, 15.36 -23.66, 4.68 -30.12 M1.74 -36.24 C-6.75 -40.41, -12.64 -48.22, -27.51 -62.19 M-0.65 -34.39 C-10.94 -45.6, -21.46 -54.43, -28.2 -60.23 M32.42 -14.25 C28.23 -16.28, 24.84 -19.51, 12.46 -28.95 M33.28 -13.59 C24.37 -18.82, 18.22 -25.59, 12.21 -31.37 M7.4 -36.62 C-3.6 -41.57, -9.21 -49.51, -23.3 -64.1 M5.13 -36.03 C-1.11 -42.46, -9.82 -48.34, -24.92 -61.89 M34.81 -18.19 C30.26 -19.73, 25.46 -26.83, 18.17 -29.03 M34.81 -16.2 C28.06 -20.81, 22.66 -25.79, 17.47 -31.34 M10.46 -36.88 C4.06 -46.07, -7.05 -54.53, -23.51 -64.89 M12.99 -34.71 C2.86 -42.96, -5.8 -51.23, -21.86 -64.92 M34.36 -21.09 C30.42 -25.36, 26.33 -27.77, 24.65 -31.02 M34.18 -22.34 C30.42 -25.32, 27.5 -27.91, 24.64 -31.29 M19.91 -34.75 C6.36 -44.57, -3.47 -54.55, -14.42 -64.48 M17.82 -36.02 C10.65 -42.61, 3.77 -47.37, -15.62 -66.15 M34.54 -26.78 C32.71 -28.2, 31.69 -29.25, 30.02 -30.74 M34.01 -27.31 C32.84 -28.12, 31.4 -29.15, 30.24 -30.32 M23.16 -33.8 C17.16 -41.3, 8.24 -49.92, -11.68 -67.14 M24.28 -35.23 C10.55 -46.77, -1.86 -58.53, -11.78 -67.6 M31.46 -35.54 C19.64 -41.6, 13.4 -52.5, -5.85 -68.87 M30.04 -35.95 C19.27 -45.62, 5.63 -56.79, -7.3 -68.28 M34.46 -36.38 C23.21 -48.24, 11.3 -55.76, -2.03 -67.47 M37.23 -36.23 C26.14 -44.63, 17.36 -53.1, -0.69 -68.46 M40.83 -34.34 C31.98 -44.87, 24.53 -50.97, 6.27 -66.57 M43.25 -35.93 C31.27 -45.05, 20.97 -54.42, 5.03 -67.56 M49.71 -35.18 C37.26 -45.17, 24.84 -55.71, 9.62 -68.9 M48.52 -35.13 C34.42 -47.75, 22.04 -59.71, 11.48 -67.59 M51.81 -38.13 C41.4 -46.01, 29.19 -58.51, 19.58 -66.83 M54.07 -37.31 C42.41 -46.72, 32.19 -56.75, 20.24 -64.99 M55.1 -37.64 C50.5 -44.91, 41.42 -49.97, 25.98 -65.78 M57.62 -38.57 C45.83 -46.93, 37.27 -55.67, 24.54 -67.62 M60.6 -41.76 C55.31 -46.37, 48.62 -54.87, 29.69 -68.93 M59.89 -41.36 C48.49 -51.45, 36.05 -61.8, 28.48 -68.8 M62.07 -43.1 C52.97 -50.98, 43.77 -60.75, 33.39 -71.4 M62.62 -44.98 C52.09 -52.7, 42.87 -62.97, 32.24 -70.98 M64.6 -47.28 C56.35 -53.16, 49.91 -59.52, 35.97 -73.36 M63.67 -49.37 C56.28 -55.77, 47.89 -64.29, 34.96 -74.27 M64.98 -51.27 C56.55 -59.89, 44.77 -69.33, 35.68 -79.01 M65.83 -52.99 C55.33 -62.42, 44.08 -73.21, 36.21 -78.88 M65.11 -56.45 C56.84 -63.41, 51.45 -71.21, 36.47 -81.71 M66.61 -57.2 C56.13 -64.93, 47.63 -74.83, 36.92 -83.64 M65.61 -62.3 C57.37 -72.88, 45.52 -80.99, 36.64 -85.61 M66.36 -61.52 C60.61 -68.52, 54.17 -74.82, 38.33 -87.13 M65.67 -68.82 C56.97 -76.68, 45.12 -84.49, 38.94 -90.04 M68.49 -67.35 C58.78 -73.37, 51.11 -81.88, 38.64 -91.44 M69.71 -72.85 C57.69 -80.36, 48.6 -90.44, 36.96 -98.57 M68.62 -71.83 C60.93 -78.51, 53.37 -83.62, 37.76 -96.75 M67.22 -78.41 C60.67 -81.74, 56.27 -86.4, 37.27 -103.44 M66.84 -77.59 C55.86 -87.5, 44.42 -96.42, 37.92 -103.1 M66.18 -83.22 C56.99 -92.22, 49.95 -100.01, 46.06 -101.86 M65.53 -84.68 C60.09 -90.17, 54.05 -94.8, 44.73 -102.22 M60.88 -94.59 C59.52 -95.67, 58.81 -96.7, 55.71 -97.6 M60.52 -94.39 C59.25 -95.89, 57.23 -97.07, 55.86 -97.86" stroke="#ffd040" stroke-width="0.5" fill="none"/><path d="M0 0 C0 0, 0 0, 0 0 M0 0 C0 0, 0 0, 0 0 M0.13 0.09 C0.94 0.12, 1.7 0.01, 2.99 0.01 M-0.07 0.13 C0.7 -0.12, 1.51 0.15, 3.12 0.05 M3.17 -0.29 C4.43 -0.12, 5.19 -0.1, 6.09 -0.16 M3.26 0.01 C3.87 -0.09, 4.61 -0.21, 6.02 -0.25 M5.97 -0.41 C7 0.01, 8.22 -0.24, 8.65 -0.19 M6.11 -0.3 C6.87 -0.12, 7.82 -0.17, 8.72 -0.39 M8.96 -0.23 C9.14 -0.3, 10.06 -0.6, 11.47 -0.57 M8.65 -0.32 C9.64 -0.52, 10.24 -0.53, 11.26 -0.52 M11.28 -0.86 C11.73 -0.92, 12.32 -0.6, 13.48 -1.03 M11.17 -0.61 C11.96 -0.71, 12.65 -0.83, 13.54 -0.94 M13.5 -0.85 C13.94 -0.94, 14.66 -1.02, 15.86 -1.49 M13.49 -1.03 C14.35 -1.22, 15.35 -1.2, 15.67 -1.42 M15.94 -1.44 C16.37 -1.71, 16.95 -1.57, 17.71 -1.85 M15.77 -1.4 C16.49 -1.46, 17.25 -1.61, 17.76 -1.9 M17.67 -1.65 C18.21 -2.01, 18.87 -2.25, 19.38 -2.23 M17.76 -1.86 C18.18 -1.85, 18.41 -2.12, 19.63 -2.28 M19.72 -2.45 C19.9 -2.4, 20.58 -2.79, 21.08 -2.71 M19.52 -2.38 C19.93 -2.56, 20.43 -2.58, 21.16 -2.91 M21.25 -3.02 C21.69 -2.9, 21.92 -3.15, 22.59 -3.59 M21.23 -2.85 C21.68 -3.11, 22.25 -3.35, 22.67 -3.47 M22.61 -3.32 C23.12 -3.49, 23.37 -3.59, 24.06 -3.95 M22.73 -3.47 C23.09 -3.67, 23.63 -3.77, 24.06 -4.07 M24.11 -4.04 C24.35 -4.2, 24.72 -4.44, 25.33 -4.73 M24.13 -4.02 C24.4 -4.22, 24.87 -4.47, 25.3 -4.69 M25.29 -4.66 C25.7 -5.1, 26.18 -5.35, 26.34 -5.48 M25.27 -4.69 C25.67 -4.89, 26.09 -5.15, 26.43 -5.33 M26.41 -5.45 C26.72 -5.6, 27.11 -5.95, 27.36 -6.08 M26.43 -5.38 C26.8 -5.58, 27.06 -5.82, 27.4 -6.09 M27.31 -6.01 C27.65 -6.23, 27.89 -6.56, 28.22 -6.81 M27.35 -6.09 C27.58 -6.19, 27.77 -6.36, 28.31 -6.74 M28.23 -6.82 C28.4 -7.01, 28.75 -7.09, 29.11 -7.53 M28.27 -6.71 C28.51 -6.98, 28.83 -7.24, 29.04 -7.49 M29.15 -7.35 C29.28 -7.76, 29.71 -8.25, 30.22 -8.69 M29.1 -7.49 C29.47 -7.93, 29.86 -8.38, 30.3 -8.86 M30.14 -8.74 C30.63 -9.25, 30.66 -9.76, 31.26 -10.04 M30.3 -8.87 C30.48 -9.3, 30.84 -9.81, 31.04 -10.27 M31.19 -10.08 C31.36 -10.41, 31.49 -10.79, 31.59 -11.42 M31.12 -10.17 C31.29 -10.68, 31.57 -11.07, 31.63 -11.5 M31.8 -11.49 C31.79 -11.87, 31.88 -12.05, 32.05 -12.54 M31.64 -11.43 C31.87 -11.83, 31.9 -12.13, 32.01 -12.58 M31.98 -12.56 C32.06 -12.81, 32.17 -13.09, 32.26 -13.49 M32.04 -12.58 C32.08 -12.85, 32.17 -13.22, 32.25 -13.54 M32.17 -13.5 C32.24 -13.71, 32.31 -14, 32.22 -14.27 M32.24 -13.57 C32.24 -13.68, 32.27 -13.91, 32.25 -14.24 M32.31 -14.25 C32.3 -14.39, 32.26 -14.61, 32.26 -14.75 M32.25 -14.28 C32.29 -14.41, 32.25 -14.53, 32.27 -14.74 M32.26 -14.76 C32.25 -14.79, 32.25 -14.83, 32.25 -14.93 M32.26 -14.75 C32.26 -14.8, 32.25 -14.83, 32.24 -14.91 M33.73 -14.4 C31.58 -19.64, 33.25 -22.12, 32.05 -31.72 M32.44 -14.2 C32.61 -18.06, 32.44 -22.05, 32.05 -30.52 M31.99 -32.32 C22.75 -31.05, 12.31 -28.79, 0.71 -31.42 M32.91 -29.72 C23.42 -30.92, 13.28 -30.55, -0.73 -29.94 M-0.22 -29.93 C-0.48 -31.57, -0.31 -32.81, -0.44 -35 M-0.63 -30.34 C-0.57 -32.07, -0.38 -33.28, -0.56 -34.97 M-2.14 -35.21 C16.15 -35.85, 31.44 -36.16, 45.76 -35.12 M-0.04 -35.4 C8.28 -34.05, 19.2 -35.33, 45.83 -35.45 M45.24 -35.01 C45.24 -35.01, 45.24 -35.01, 45.24 -35.01 M45.24 -35.01 C45.24 -35.01, 45.24 -35.01, 45.24 -35.01 M45.25 -35 C45.27 -35.01, 45.28 -35.01, 45.31 -35 M45.25 -35.01 C45.26 -35.01, 45.28 -35, 45.31 -35 M45.29 -35 C45.36 -35.01, 45.46 -34.98, 45.51 -34.98 M45.3 -35 C45.35 -34.99, 45.39 -35, 45.49 -34.98 M45.48 -35.01 C45.57 -34.97, 45.64 -34.99, 45.79 -34.97 M45.5 -34.99 C45.59 -34.98, 45.71 -34.96, 45.79 -34.96 M45.75 -34.95 C45.91 -34.97, 46.12 -35, 46.17 -34.93 M45.81 -34.96 C45.9 -34.96, 46 -34.97, 46.21 -34.98 M46.2 -35.04 C46.49 -34.95, 46.94 -34.95, 47.26 -34.91 M46.2 -34.99 C46.38 -34.95, 46.58 -35.01, 47.23 -35.05 M47.22 -35.08 C47.7 -35.02, 48.18 -35.2, 48.61 -35.26 M47.32 -34.99 C47.59 -35.01, 47.86 -35.13, 48.63 -35.11 M48.63 -35.14 C49.07 -35.34, 49.86 -35.4, 50.34 -35.37 M48.64 -35.11 C49.11 -35.16, 49.47 -35.27, 50.36 -35.49 M50.23 -35.6 C50.93 -35.77, 51.17 -35.9, 52.07 -35.92 M50.31 -35.41 C50.81 -35.67, 51.3 -35.76, 52.16 -35.98 M52.07 -36.08 C52.8 -36.47, 53.6 -36.45, 54.39 -36.9 M52.22 -36.02 C52.75 -36.38, 53.61 -36.52, 54.26 -36.99 M54.11 -36.75 C54.58 -37.37, 54.98 -37.3, 56.07 -38.15 M54.09 -36.79 C54.8 -37.22, 55.41 -37.52, 56.15 -38.07 M56.26 -38.01 C56.52 -38.38, 56.99 -38.67, 57.3 -38.83 M56.3 -38.1 C56.47 -38.23, 56.76 -38.44, 57.29 -38.87 M57.32 -38.88 C57.55 -39.13, 57.99 -39.3, 58.2 -39.81 M57.29 -38.85 C57.6 -39.09, 57.93 -39.38, 58.33 -39.72 M58.35 -39.61 C58.74 -40.08, 59.07 -40.3, 59.27 -40.75 M58.25 -39.64 C58.65 -40.08, 58.88 -40.36, 59.3 -40.63 M59.33 -40.6 C59.4 -40.91, 59.9 -41.27, 60.43 -41.89 M59.25 -40.66 C59.64 -40.96, 59.98 -41.36, 60.31 -41.82 M60.36 -41.87 C60.46 -42.28, 60.79 -42.44, 61.3 -42.87 M60.27 -41.8 C60.55 -42.27, 60.92 -42.66, 61.18 -42.94 M61.33 -43.13 C61.42 -43.44, 61.7 -43.61, 62.13 -44.37 M61.32 -42.96 C61.41 -43.26, 61.61 -43.67, 62.18 -44.44 M62.24 -44.29 C62.32 -44.75, 62.61 -45.1, 62.96 -45.86 M62.1 -44.3 C62.51 -44.88, 62.79 -45.55, 63.09 -45.81 M62.93 -45.69 C63.38 -46.59, 63.39 -47.03, 63.63 -47.64 M62.96 -45.83 C63.14 -46.38, 63.4 -46.93, 63.74 -47.51 M63.85 -47.73 C64.26 -48.25, 64.28 -48.86, 64.52 -49.41 M63.82 -47.49 C64 -47.91, 64.21 -48.36, 64.5 -49.32 M64.59 -49.41 C64.8 -49.89, 65.02 -50.56, 65.07 -51.51 M64.65 -49.32 C64.82 -49.92, 64.94 -50.19, 65.25 -51.3 M65.44 -51.29 C65.56 -51.84, 65.54 -52.71, 65.75 -53.7 M65.26 -51.27 C65.45 -51.95, 65.53 -52.59, 65.75 -53.49 M65.77 -53.45 C66.14 -54.21, 65.96 -54.66, 66.11 -55.65 M65.7 -53.6 C65.93 -54.11, 66.02 -54.52, 66.24 -55.8 M66.31 -56.12 C66.31 -56.27, 66.57 -57.34, 66.48 -58.27 M66.28 -55.97 C66.37 -56.64, 66.62 -57.25, 66.6 -58.5 M66.95 -58.4 C67.05 -59.51, 66.73 -60.22, 67.27 -61.23 M66.64 -58.27 C66.73 -59.12, 66.96 -60.11, 66.96 -61.23 M67.07 -61.18 C66.81 -61.9, 67.13 -62.75, 67.27 -63.91 M67.1 -61.26 C67.19 -62, 67.22 -63.03, 67.26 -64.18 M67.29 -64.33 C67.23 -64.8, 66.97 -65.87, 67.47 -67.05 M67.13 -64.08 C67.16 -64.79, 67.26 -65.64, 67.34 -67.35 M67.32 -67.46 C67.48 -68.16, 67.09 -68.72, 67.31 -70.68 M67.24 -67.26 C67.19 -68.03, 67.22 -69.1, 67.07 -70.23 M67.16 -70.11 C67.09 -71.25, 67.09 -72.44, 67.04 -73.22 M67.28 -70.48 C67.15 -71.1, 67.24 -71.94, 67.12 -73.27 M67.13 -73.5 C66.8 -73.72, 66.79 -74.62, 66.55 -75.96 M66.95 -73.35 C66.86 -74.29, 66.84 -74.91, 66.9 -76.15 M66.77 -75.82 C66.57 -76.64, 66.5 -77.21, 66.53 -78.71 M66.68 -75.94 C66.67 -77.12, 66.48 -77.93, 66.55 -78.55 M66.58 -78.6 C66.39 -79.06, 66.24 -79.65, 65.82 -81.03 M66.38 -78.67 C66.12 -79.51, 66.1 -80.36, 66.11 -80.9 M65.94 -81.01 C65.92 -81.31, 65.79 -82, 65.69 -83 M66.05 -81.04 C65.87 -81.86, 65.54 -82.74, 65.43 -83.23 M65.66 -83.35 C65.28 -83.77, 65.05 -84.07, 64.88 -85.34 M65.48 -83.22 C65.24 -83.91, 65.1 -84.51, 64.95 -85.24 M64.74 -85.36 C64.74 -85.7, 64.57 -86.46, 64.36 -87.06 M64.96 -85.17 C64.81 -85.7, 64.46 -86.23, 64.18 -87 M64.34 -87.01 C64.05 -87.8, 63.85 -88.32, 63.38 -88.8 M64.31 -87.09 C64.13 -87.52, 63.85 -88.1, 63.58 -88.81 M63.69 -88.94 C63.47 -89.3, 62.98 -89.55, 62.76 -90.45 M63.56 -88.81 C63.21 -89.33, 62.96 -89.86, 62.76 -90.42 M62.92 -90.21 C62.55 -90.71, 62.3 -91.1, 61.91 -91.93 M62.84 -90.36 C62.58 -90.75, 62.32 -91.15, 61.95 -91.84 M61.99 -91.69 C61.57 -92.19, 61.33 -92.86, 61.33 -92.99 M62.08 -91.75 C61.72 -92.28, 61.41 -92.75, 61.24 -93.08 M61.27 -93.1 C61.01 -93.23, 60.66 -93.57, 60.37 -94.35 M61.13 -93.11 C60.92 -93.48, 60.6 -93.91, 60.3 -94.16 M60.4 -94.33 C60.06 -94.41, 59.81 -94.9, 59.46 -95.15 M60.38 -94.24 C60.2 -94.42, 59.91 -94.62, 59.46 -95.21 M59.53 -95.27 C59.26 -95.44, 58.9 -95.89, 58.55 -96.03 M59.41 -95.19 C59.28 -95.52, 58.94 -95.75, 58.55 -96.17 M58.49 -96.22 C58.29 -96.3, 57.91 -96.63, 57.77 -97.03 M58.53 -96.18 C58.29 -96.41, 58.05 -96.71, 57.62 -96.97 M57.5 -97.01 C57.27 -97.62, 56.23 -98.07, 55.7 -98.08 M57.69 -97.02 C57.29 -97.32, 56.86 -97.56, 55.88 -98.39 M55.91 -98.11 C55.27 -98.47, 55.11 -98.92, 54.32 -99.29 M55.94 -98.33 C55.42 -98.55, 54.82 -98.86, 54.07 -99.25 M54.24 -99.22 C53.45 -99.64, 53.07 -99.72, 52.45 -100.01 M54.12 -99.25 C53.49 -99.45, 52.99 -99.66, 52.49 -99.98 M52.35 -100.01 C52.27 -100.14, 51.83 -100.15, 50.94 -100.25 M52.45 -99.85 C51.93 -100.11, 51.46 -100.19, 51.01 -100.32 M51.1 -100.45 C50.81 -100.3, 50.3 -100.42, 49.77 -100.55 M50.99 -100.32 C50.54 -100.39, 50.15 -100.56, 49.87 -100.55 M49.87 -100.59 C49.56 -100.64, 49.22 -100.68, 48.95 -100.64 M49.82 -100.56 C49.55 -100.61, 49.21 -100.67, 48.86 -100.67 M48.88 -100.64 C48.64 -100.72, 48.5 -100.75, 48.26 -100.74 M48.85 -100.65 C48.63 -100.7, 48.42 -100.67, 48.27 -100.67 M48.27 -100.7 C48.19 -100.69, 48.14 -100.69, 48.1 -100.7 M48.26 -100.69 C48.22 -100.7, 48.18 -100.69, 48.1 -100.69 M48.09 -100.69 C48.08 -100.69, 48.07 -100.69, 48.05 -100.69 M48.1 -100.69 C48.08 -100.69, 48.06 -100.69, 48.04 -100.69 M47.69 -100.57 C44.04 -100.69, 40.78 -100.05, 36.47 -100.01 M47.92 -100.9 C44.36 -101.02, 40.34 -100.97, 36.81 -100.25 M37.04 -100.15 C35.5 -94.96, 36.61 -87.86, 35.87 -85.02 M36.57 -100.7 C36.7 -97.76, 36.51 -93.7, 36.48 -83.96 M36.58 -84.59 C36.58 -84.59, 36.58 -84.59, 36.58 -84.59 M36.58 -84.59 C36.58 -84.59, 36.58 -84.59, 36.58 -84.59 M36.58 -84.59 C36.58 -84.57, 36.58 -84.55, 36.58 -84.53 M36.58 -84.59 C36.58 -84.56, 36.58 -84.55, 36.58 -84.53 M36.57 -84.53 C36.58 -84.49, 36.57 -84.43, 36.57 -84.39 M36.57 -84.54 C36.58 -84.5, 36.58 -84.47, 36.59 -84.38 M36.55 -84.31 C36.55 -84.21, 36.55 -84.07, 36.63 -83.73 M36.58 -84.37 C36.6 -84.24, 36.57 -84.09, 36.59 -83.77 M36.57 -83.68 C36.61 -83.49, 36.59 -83.1, 36.59 -82.82 M36.61 -83.73 C36.52 -83.52, 36.53 -83.21, 36.48 -82.84 M36.53 -82.85 C36.56 -82.4, 36.36 -82.27, 36.35 -81.7 M36.49 -82.8 C36.41 -82.39, 36.43 -81.94, 36.4 -81.53 M36.42 -81.73 C36.39 -81.14, 36.08 -80.58, 36.26 -79.99 M36.38 -81.62 C36.36 -81.11, 36.28 -80.81, 36.16 -80.14 M36.13 -80.04 C35.88 -79.62, 35.78 -79.41, 35.77 -78.51 M36.18 -80.1 C36.07 -79.68, 35.91 -79.2, 35.77 -78.58 M35.75 -78.66 C35.74 -78.02, 35.38 -77.53, 35.3 -76.9 M35.8 -78.59 C35.55 -77.87, 35.37 -77.21, 35.14 -76.82 M35.32 -76.81 C34.9 -76.32, 34.81 -75.69, 34.48 -75.15 M35.18 -76.71 C35.03 -76.38, 34.77 -75.82, 34.48 -74.96 M34.4 -74.93 C33.91 -74.18, 33.67 -73.72, 33.57 -73.22 M34.37 -75.04 C34.21 -74.59, 33.95 -74.15, 33.53 -73.25 M33.31 -73.23 C33.15 -72.68, 32.62 -72.16, 32.35 -71.26 M33.39 -73.12 C32.92 -72.53, 32.49 -72.02, 32.25 -71.43 M32.44 -71.4 C31.83 -71, 31.35 -70.55, 30.5 -69.99 M32.14 -71.53 C31.62 -70.97, 31.16 -70.38, 30.64 -69.76 M30.92 -69.7 C30.45 -69.67, 29.92 -68.97, 29.03 -68.23 M30.65 -69.84 C30.05 -69.28, 29.26 -68.64, 28.76 -68.36 M28.82 -68.4 C28.66 -68.33, 28.47 -68.12, 27.85 -67.73 M28.81 -68.34 C28.62 -68.18, 28.4 -68.13, 27.8 -67.75 M27.84 -67.74 C27.44 -67.63, 27.04 -67.23, 26.79 -67.09 M27.81 -67.76 C27.52 -67.58, 27.32 -67.5, 26.7 -67.17 M26.76 -67.09 C26.35 -67.1, 25.99 -66.92, 25.45 -66.61 M26.66 -67.2 C26.33 -67.04, 26.08 -66.84, 25.49 -66.59 M25.4 -66.72 C25.03 -66.54, 24.44 -66.31, 24.11 -66.31 M25.5 -66.6 C25.01 -66.52, 24.51 -66.32, 24.03 -66.26 M24.03 -66.16 C23.77 -66.24, 23.48 -66.04, 22.65 -65.86 M24.05 -66.17 C23.58 -66.09, 22.91 -65.88, 22.65 -65.87 M22.58 -65.78 C22.13 -65.65, 21.41 -65.57, 21.09 -65.52 M22.6 -65.91 C22.05 -65.8, 21.54 -65.72, 21.09 -65.62 M21.21 -65.53 C20.87 -65.45, 20.46 -65.57, 19.3 -65.26 M21.12 -65.6 C20.61 -65.49, 20.17 -65.49, 19.4 -65.39 M19.36 -65.39 C19.09 -65.47, 18.36 -65.44, 17.77 -65.24 M19.53 -65.4 C18.79 -65.39, 18.37 -65.34, 17.6 -65.29 M19.33 -64.17 C10.79 -67.04, 0.8 -64.97, -13.84 -63.55 M17.53 -65.35 C7.06 -66.06, -3.31 -65.67, -14.16 -64.92 M-14.88 -65.38 C-14.88 -65.38, -14.88 -65.38, -14.88 -65.38 M-14.88 -65.38 C-14.88 -65.38, -14.88 -65.38, -14.88 -65.38 M-14.88 -65.38 C-14.89 -65.38, -14.91 -65.37, -14.93 -65.38 M-14.88 -65.38 C-14.89 -65.38, -14.9 -65.38, -14.93 -65.37 M-14.93 -65.39 C-14.99 -65.39, -15.03 -65.36, -15.09 -65.38 M-14.92 -65.38 C-14.96 -65.38, -14.99 -65.38, -15.08 -65.38 M-15.08 -65.35 C-15.33 -65.38, -15.45 -65.33, -15.64 -65.32 M-15.06 -65.38 C-15.25 -65.39, -15.44 -65.35, -15.64 -65.35 M-15.59 -65.35 C-15.99 -65.37, -16.18 -65.26, -16.53 -65.33 M-15.64 -65.35 C-15.86 -65.31, -16.12 -65.29, -16.53 -65.32 M-16.5 -65.35 C-16.9 -65.32, -17.24 -65.14, -17.79 -65.12 M-16.51 -65.3 C-16.96 -65.28, -17.33 -65.22, -17.74 -65.18 M-17.67 -65.17 C-18.11 -65.04, -18.73 -64.86, -19.03 -64.95 M-17.72 -65.15 C-18.27 -65, -18.75 -64.99, -19.16 -64.86 M-19.23 -64.97 C-19.42 -64.72, -19.82 -64.76, -20.69 -64.38 M-19.16 -64.95 C-19.52 -64.82, -19.99 -64.59, -20.73 -64.47 M-20.77 -64.38 C-21.02 -64.47, -21.62 -64.23, -22.26 -63.9 M-20.68 -64.58 C-21.23 -64.33, -21.79 -64.06, -22.3 -63.94 M-22.16 -63.9 C-22.72 -63.94, -23.24 -63.49, -23.85 -63.11 M-22.39 -63.93 C-22.74 -63.8, -23.27 -63.6, -24.04 -63.27 M-24.07 -63.1 C-24.68 -63.01, -25.08 -62.57, -25.7 -62.48 M-24.07 -63.36 C-24.73 -63.02, -25.34 -62.62, -25.71 -62.39 M-25.65 -62.21 C-26.08 -62.1, -26.81 -61.78, -27.34 -61.06 M-25.64 -62.31 C-26.15 -62.09, -26.41 -61.78, -27.44 -61.27 M-27.5 -61.26 C-27.87 -60.62, -28.22 -60.56, -29.04 -59.75 M-27.3 -61.23 C-27.79 -60.76, -28.15 -60.54, -28.89 -59.74 M-28.92 -59.88 C-29.26 -59, -29.76 -58.57, -30.2 -58.03 M-28.84 -59.76 C-29.51 -59.17, -29.96 -58.5, -30.21 -58.08 M-30.3 -57.98 C-30.54 -57.64, -30.78 -57.48, -30.89 -57.15 M-30.34 -57.99 C-30.4 -57.82, -30.55 -57.57, -30.96 -57.05 M-30.87 -56.97 C-31.02 -56.74, -31.18 -56.53, -31.41 -55.88 M-30.98 -57.08 C-31.03 -56.72, -31.25 -56.5, -31.51 -55.97 M-31.6 -55.92 C-31.68 -55.85, -31.67 -55.57, -32.01 -54.81 M-31.45 -55.96 C-31.56 -55.7, -31.65 -55.47, -31.95 -54.87 M-32.09 -54.91 C-32.12 -54.41, -32.16 -54.27, -32.27 -53.74 M-31.98 -54.82 C-32.09 -54.47, -32.15 -54.25, -32.41 -53.56 M-32.48 -53.74 C-32.39 -53.19, -32.66 -52.65, -32.59 -52.32 M-32.43 -53.57 C-32.5 -53.03, -32.69 -52.56, -32.66 -52.3 M-32.7 -52.37 C-32.88 -51.8, -32.95 -51.13, -33.03 -50.92 M-32.68 -52.29 C-32.8 -51.7, -32.84 -51.22, -32.97 -50.92 M-33.01 -50.78 C-33.08 -50.29, -33.19 -49.92, -33.06 -49.28 M-32.93 -50.86 C-32.94 -50.42, -32.98 -50.16, -33.15 -49.31 M-33.05 -49.22 C-33.29 -48.95, -33.2 -48.57, -33.1 -47.74 M-33.05 -49.31 C-33.09 -48.76, -33.23 -48.16, -33.13 -47.72 M-31.78 -48.67 C-35.14 -37.49, -31.83 -25.48, -31.24 -18.14 M-32.3 -48.07 C-32.4 -40.31, -32.81 -33.61, -32.98 -18.61 M-33.17 -17.98 C-33.17 -17.98, -33.17 -17.98, -33.17 -17.98 M-33.17 -17.98 C-33.17 -17.98, -33.17 -17.98, -33.17 -17.98 M-33.16 -17.98 C-33.17 -17.91, -33.2 -17.85, -33.18 -17.8 M-33.16 -17.98 C-33.17 -17.93, -33.18 -17.87, -33.18 -17.78 M-33.2 -17.84 C-33.15 -17.57, -33.24 -17.41, -33.16 -17.18 M-33.22 -17.75 C-33.17 -17.59, -33.2 -17.35, -33.24 -17.22 M-33.3 -17.29 C-33.2 -16.88, -33.15 -16.65, -33.25 -16.39 M-33.2 -17.2 C-33.24 -16.92, -33.2 -16.58, -33.19 -16.36 M-33.14 -16.24 C-33.22 -16.03, -33.2 -15.51, -32.94 -15.13 M-33.13 -16.35 C-33.18 -15.84, -33.1 -15.47, -33.01 -15.16 M-33.05 -15.2 C-32.87 -14.82, -32.78 -14.24, -32.65 -13.74 M-33.07 -15.2 C-32.97 -14.8, -32.86 -14.57, -32.74 -13.78 M-32.56 -13.93 C-32.6 -13.25, -32.25 -12.95, -32.2 -12.24 M-32.7 -13.83 C-32.65 -13.46, -32.46 -13.06, -32.08 -12.31 M-32.04 -12.31 C-31.78 -11.85, -31.48 -11.28, -31.31 -10.71 M-32.1 -12.25 C-31.83 -11.82, -31.62 -11.18, -31.21 -10.73 M-31.3 -10.47 C-30.93 -10.04, -30.53 -9.69, -30.1 -8.9 M-31.37 -10.72 C-30.89 -10.37, -30.72 -9.96, -30.06 -9.09 M-30.05 -8.88 C-29.95 -8.85, -29.65 -8.59, -29.28 -8.06 M-30.05 -8.98 C-29.85 -8.67, -29.54 -8.41, -29.29 -8.15 M-29.23 -8.05 C-28.97 -7.83, -28.59 -7.47, -28.48 -7.25 M-29.28 -8.19 C-29.04 -7.83, -28.76 -7.62, -28.39 -7.27 M-28.51 -7.29 C-28.1 -7.15, -28.01 -7, -27.35 -6.5 M-28.37 -7.31 C-28.14 -7.17, -27.95 -6.94, -27.39 -6.55 M-27.31 -6.39 C-27.1 -6.39, -27.05 -6.03, -26.22 -5.65 M-27.47 -6.43 C-26.99 -6.26, -26.73 -6.03, -26.35 -5.75 M-26.21 -5.6 C-25.96 -5.35, -25.6 -5.43, -25.16 -4.81 M-26.27 -5.62 C-25.92 -5.48, -25.64 -5.26, -25.05 -4.9 M-25.16 -5.01 C-24.61 -4.86, -24.22 -4.6, -23.53 -4.32 M-25.03 -4.92 C-24.62 -4.76, -24.14 -4.44, -23.6 -4.15 M-23.58 -4.01 C-22.87 -3.93, -22.31 -3.7, -21.99 -3.31 M-23.57 -4.19 C-23.28 -3.96, -22.88 -3.79, -22.02 -3.51 M-22.24 -3.44 C-21.45 -3.27, -21.21 -3.15, -20.53 -2.8 M-22.07 -3.51 C-21.64 -3.21, -21.2 -3.21, -20.29 -2.79 M-20.29 -2.86 C-20 -2.75, -19.28 -2.57, -18.45 -2.3 M-20.38 -2.72 C-19.83 -2.68, -19.24 -2.47, -18.42 -2.23 M-18.35 -2.37 C-17.96 -1.91, -17.49 -1.84, -16.23 -1.6 M-18.41 -2.31 C-17.92 -2.01, -17.45 -1.92, -16.43 -1.63 M-16.33 -1.79 C-15.72 -1.43, -15.28 -1.39, -14.13 -1.16 M-16.34 -1.61 C-15.71 -1.48, -14.94 -1.39, -14.23 -1.09 M-14.06 -1.27 C-13.26 -1.06, -12.29 -0.68, -11.54 -0.67 M-14.09 -1.07 C-13.44 -1.14, -12.52 -1, -11.73 -0.8 M-11.78 -0.75 C-11.28 -0.78, -10.76 -0.81, -9.23 -0.69 M-11.62 -0.74 C-10.79 -0.69, -9.95 -0.57, -9.25 -0.33 M-9.06 -0.7 C-8.46 -0.59, -7.49 -0.55, -6.44 -0.47 M-9.2 -0.45 C-8.17 -0.5, -7.43 -0.31, -6.18 -0.26 M-6.33 -0.31 C-5.68 0.11, -5.05 -0.28, -3.27 -0.19 M-6.4 -0.22 C-5.31 -0.22, -4.33 -0.17, -3.21 -0.19 M-3.22 0.03 C-2.14 -0.31, -1.15 -0.05, -0.32 0.16 M-3.36 -0.05 C-2.43 -0.08, -1.61 -0.04, -0.06 0.08 M0 0 C0 0, 0 0, 0 0 M0 0 C0 0, 0 0, 0 0 M0 0 C0 0, 0 0, 0 0 M0 0 C0 0, 0 0, 0 0" stroke="#ffd040" stroke-width="1" fill="none"/></g></g><mask/><g stroke-linecap="round"><g transform="translate(96.6060875040214 134.5126045933819) rotate(0 1.4210854715202004e-13 -5.904921450929873)" fill-rule="evenodd"><path d="M-4.09 -10.18 C-4.09 -10.18, -4.09 -10.18, -4.09 -10.18 M-4.09 -10.18 C-4.09 -10.18, -4.09 -10.18, -4.09 -10.18 M-4.91 -3.91 C-2.91 -5.1, 0.01 -9.12, 2.99 -12.31 M-4.72 -2.57 C-2.59 -4.77, -0.84 -7.49, 2.2 -11.52 M-2.61 0.07 C-1.26 -3.07, 0.35 -4.59, 5.95 -9.36 M-1.56 -0.36 C-0.35 -2.3, 1.84 -5.06, 5.61 -8.58 M-3.96 -1.54 C-3.96 -1.54, -3.96 -1.54, -3.96 -1.54 M-3.96 -1.54 C-3.96 -1.54, -3.96 -1.54, -3.96 -1.54 M3.04 -1.52 C-1.09 -3.98, -2.31 -6.6, -5.34 -8.14 M2.87 -1.1 C0.85 -2.35, -0.67 -4.55, -4.99 -7.55 M6.69 -4.57 C3.68 -5.37, 1.49 -6.87, -3.05 -11.91 M5.79 -4.12 C3.55 -6.44, 0.66 -8.48, -3.51 -11.31" stroke="#ffd040" stroke-width="0.5" fill="none"/><path d="M0 0 C0 0, 0 0, 0 0 M0 0 C0 0, 0 0, 0 0 M0.04 0.03 C-0.34 -0.05, -0.77 -0.12, -1.17 -0.17 M0.05 -0.04 C-0.38 -0.07, -0.6 -0.07, -1.15 -0.07 M-1.29 -0.04 C-1.49 -0.27, -1.76 -0.27, -2.3 -0.52 M-1.17 -0.11 C-1.5 -0.19, -1.84 -0.3, -2.33 -0.41 M-2.4 -0.5 C-2.41 -0.56, -2.71 -0.75, -3.23 -0.99 M-2.35 -0.46 C-2.48 -0.54, -2.7 -0.71, -3.31 -1.05 M-3.24 -1.08 C-3.47 -1.09, -3.8 -1.27, -4.14 -1.71 M-3.28 -0.96 C-3.51 -1.21, -3.67 -1.32, -4.12 -1.78 M-4.28 -1.73 C-4.46 -1.91, -4.47 -2.25, -4.92 -2.62 M-4.16 -1.71 C-4.33 -1.89, -4.5 -2.15, -4.88 -2.65 M-4.83 -2.67 C-4.97 -2.8, -5.1 -3.05, -5.5 -3.51 M-4.92 -2.64 C-5.07 -2.79, -5.11 -3.12, -5.47 -3.58 M-5.48 -3.64 C-5.65 -4.02, -5.58 -4.28, -5.8 -4.63 M-5.46 -3.61 C-5.49 -3.92, -5.58 -4.24, -5.83 -4.7 M-5.67 -4.78 C-5.83 -4.98, -5.9 -5.33, -5.84 -6.01 M-5.8 -4.67 C-5.78 -5.23, -5.92 -5.58, -5.87 -5.91 M-5.99 -5.99 C-5.8 -6.25, -5.92 -6.8, -5.67 -7.13 M-5.94 -5.95 C-5.92 -6.3, -5.8 -6.73, -5.81 -7.14 M-5.89 -6.99 C-5.59 -7.46, -5.55 -8, -5.54 -8.15 M-5.76 -7.14 C-5.72 -7.4, -5.65 -7.72, -5.45 -8.25 M-5.34 -8.12 C-5.16 -8.53, -4.94 -8.96, -4.8 -9.19 M-5.45 -8.25 C-5.28 -8.49, -5.04 -8.86, -4.89 -9.26 M-4.87 -9.2 C-4.74 -9.29, -4.68 -9.56, -4.19 -10.08 M-4.85 -9.25 C-4.66 -9.42, -4.5 -9.72, -4.15 -10.03 M-4.12 -10.12 C-3.98 -10.33, -3.67 -10.65, -3.39 -10.76 M-4.15 -10.09 C-3.87 -10.27, -3.63 -10.5, -3.25 -10.77 M-3.37 -10.85 C-2.98 -10.97, -2.78 -11.16, -2.31 -11.29 M-3.29 -10.76 C-2.88 -11.06, -2.49 -11.22, -2.33 -11.33 M-2.24 -11.4 C-2 -11.51, -1.88 -11.52, -1.24 -11.78 M-2.33 -11.37 C-2.02 -11.43, -1.79 -11.44, -1.18 -11.69 M-1.26 -11.8 C-0.89 -11.7, -0.4 -11.66, -0.08 -11.74 M-1.13 -11.73 C-0.76 -11.71, -0.38 -11.75, -0.03 -11.84 M0.07 -11.85 C0.33 -11.75, 0.53 -11.77, 1.3 -11.63 M-0.02 -11.79 C0.35 -11.79, 0.72 -11.71, 1.19 -11.7 M1.27 -11.59 C1.49 -11.64, 1.71 -11.38, 2.41 -11.29 M1.17 -11.75 C1.47 -11.63, 1.72 -11.59, 2.25 -11.38 M2.39 -11.25 C2.72 -11.08, 3.01 -11.07, 3.33 -10.75 M2.32 -11.35 C2.64 -11.08, 3.07 -10.98, 3.27 -10.82 M3.27 -10.8 C3.45 -10.62, 3.83 -10.4, 4.22 -10.06 M3.33 -10.75 C3.5 -10.65, 3.76 -10.49, 4.18 -10.11 M4.2 -10.12 C4.44 -9.74, 4.64 -9.44, 4.95 -9.18 M4.18 -10.11 C4.43 -9.81, 4.57 -9.54, 4.9 -9.22 M4.95 -9.19 C5.14 -8.77, 5.17 -8.63, 5.45 -8.27 M4.86 -9.19 C5.15 -8.79, 5.29 -8.5, 5.49 -8.18 M5.5 -8.14 C5.64 -7.93, 5.57 -7.65, 5.78 -7.14 M5.43 -8.16 C5.51 -7.98, 5.61 -7.65, 5.82 -7.14 M5.67 -7.13 C5.81 -6.71, 5.88 -6.25, 5.8 -5.95 M5.76 -7.1 C5.78 -6.74, 5.88 -6.34, 5.93 -5.96 M5.94 -5.96 C5.76 -5.49, 5.79 -5.24, 5.68 -4.8 M5.96 -5.87 C5.9 -5.45, 5.82 -5.05, 5.77 -4.73 M5.67 -4.73 C5.62 -4.39, 5.63 -3.83, 5.38 -3.62 M5.82 -4.67 C5.64 -4.34, 5.55 -4, 5.47 -3.62 M5.55 -3.56 C5.25 -3.13, 5.05 -2.79, 4.9 -2.56 M5.45 -3.6 C5.26 -3.29, 5.2 -3.07, 4.91 -2.58 M4.89 -2.53 C4.68 -2.36, 4.5 -2.19, 4.17 -1.83 M4.88 -2.65 C4.66 -2.24, 4.3 -1.88, 4.15 -1.78 M4.23 -1.67 C3.92 -1.41, 3.59 -1.21, 3.36 -0.92 M4.2 -1.76 C4 -1.62, 3.75 -1.37, 3.29 -1.01 M3.41 -0.96 C2.95 -0.89, 2.65 -0.63, 2.3 -0.47 M3.25 -1.05 C2.95 -0.83, 2.68 -0.63, 2.35 -0.43 M2.28 -0.55 C1.91 -0.26, 1.71 -0.16, 1.23 -0.19 M2.28 -0.48 C1.94 -0.36, 1.46 -0.21, 1.21 -0.17 M1.08 -0.04 C0.83 0.02, 0.33 -0.04, 0 0.06 M1.18 -0.15 C0.87 -0.06, 0.58 -0.05, 0.04 0.04 M0 0 C0 0, 0 0, 0 0 M0 0 C0 0, 0 0, 0 0 M0 0 C0 0, 0 0, 0 0 M0 0 C0 0, 0 0, 0 0" stroke="#ffd040" stroke-width="1" fill="none"/></g></g><mask/></svg>